  0
SECTION
  2
HEADER
  9
$ACADVER
  1
AC1032
  9
$DWGCODEPAGE
  3
ANSI_1252
  9
$EXTMAX
 10
1000.0
 20
843.75
 30
0.0
  9
$EXTMIN
 10
0.0
 20
0.0
 30
0.0
  9
$LIMMIN
 10
0.0
 20
0.0
  9
$LIMMAX
 10
1000.0
 20
843.75
  9
$VIEWCTR
 10
500.0
 20
421.875
  9
$VIEWSIZE
 40
843.75
  9
$CLAYER
  8
0
  9
$LTSCALE
 40
65.1851851852
  9
$CELTYPE
  6
BYLAYER
  9
$DIMSCALE
 40
1.0
  9
$DIMASZ
 40
0.1875
  9
$DIMEXO
 40
0.0625
  9
$DIMDLI
 40
38.0
  9
$DIMEXE
 40
0.125
  9
$DIMCEN
 40
9.0
  9
$DIMLFAC
 40
1.0
  9
$DIMBLK
  1
_CLOSED
  9
$DIMALT
 70
0
  9
$DIMALTF
 40
0.0393700787
  9
$DIMTXT
 40
0.15625
  9
$DIMDSEP
 70
46
  9
$AUNITS
 70
0
  9
$PDMODE
 70
0
  9
$PDSIZE
 40
0.3125
  9
$HANDSEED
  5
34B
  9
$TILEMODE
 70
1
  9
$MEASUREMENT
 70
1
  9
$INSUNITS
 70
4
  0
ENDSEC
  0
SECTION
  2
CLASSES
  0
CLASS
  1
ACDBDICTIONARYWDFLT
  2
AcDbDictionaryWithDefault
  3
AutoCAD 2000
 90
0
 91
1
280
0
281
0
  0
CLASS
  1
ACDBPLACEHOLDER
  2
AcDbPlaceHolder
  3
AutoCAD 2000
 90
0
 91
1
280
0
281
0
  0
CLASS
  1
LAYOUT
  2
AcDbLayout
  3
AutoCAD 2000
 90
0
 91
0
280
0
281
0
  0
ENDSEC
  0
SECTION
  2
TABLES
  0
TABLE
  2
VPORT
  5
8
100
AcDbSymbolTable
 70
2
  0
VPORT
  5
1F4
100
AcDbSymbolTableRecord
100
AcDbViewportTableRecord
  2
*ACTIVE
 70
0
 10
0.0
 20
0.0
 11
1.0
 21
1.0
 12
500.0
 22
421.875
 13
0.0
 23
0.0
 14
1.0
 24
1.0
 15
0.0
 25
0.0
 16
0.0
 26
0.0
 36
1.0
 17
0.0
 27
0.0
 37
0.0
 40
843.75
 41
1.1851851852
 42
50.0
 43
0.0
 44
0.0
 50
0.0
 51
0.0
 71
0
 72
100
 73
1
 74
1
 75
0
 76
0
 77
0
 78
0
  0
ENDTAB
  0
TABLE
  2
LTYPE
  5
5
100
AcDbSymbolTable
 70
6
  0
LTYPE
  5
14
100
AcDbSymbolTableRecord
100
AcDbLinetypeTableRecord
  2
BYBLOCK
 70
0
  3

 72
65
 73
0
 40
0.0
  0
LTYPE
  5
15
100
AcDbSymbolTableRecord
100
AcDbLinetypeTableRecord
  2
BYLAYER
 70
0
  3

 72
65
 73
0
 40
0.0
  0
LTYPE
  5
16
100
AcDbSymbolTableRecord
100
AcDbLinetypeTableRecord
  2
CONTINUOUS
 70
64
  3
Solid line
 72
65
 73
0
 40
0.0
  0
LTYPE
  5
1F5
100
AcDbSymbolTableRecord
100
AcDbLinetypeTableRecord
  2
CENTER
 70
64
  3
____ _ ____ _ ____ _ ____ _ ____ _ ____ _ ____
 72
65
 73
4
 40
0.6
 49
0.375
 74
0
 49
-0.075
 74
0
 49
0.075
 74
0
 49
-0.075
 74
0
  0
LTYPE
  5
1F6
100
AcDbSymbolTableRecord
100
AcDbLinetypeTableRecord
  2
HIDDEN
 70
64
  3
- - - - - - - - - - - - - - - - - - - -
 72
65
 73
2
 40
0.2
 49
0.1
 74
0
 49
-0.1
 74
0
  0
LTYPE
  5
1F7
100
AcDbSymbolTableRecord
100
AcDbLinetypeTableRecord
  2
PHANTOM
 70
64
  3
_____ _ _ _____ _ _ _____ _ _ _____
 72
65
 73
6
 40
0.8
 49
0.45
 74
0
 49
-0.05
 74
0
 49
0.1
 74
0
 49
-0.05
 74
0
 49
0.1
 74
0
 49
-0.05
 74
0
  0
LTYPE
  5
1F8
100
AcDbSymbolTableRecord
100
AcDbLinetypeTableRecord
  2
DOT
 70
64
  3
. . . . . . . . . . . . . . . . . . . .
 72
65
 73
2
 40
0.08
 49
0.0
 74
0
 49
-0.08
 74
0
  0
LTYPE
  5
1F9
100
AcDbSymbolTableRecord
100
AcDbLinetypeTableRecord
  2
DASHED
 70
64
  3
- - - - - - - - - - - - - - - - - - - -
 72
65
 73
2
 40
0.2
 49
0.1
 74
0
 49
-0.1
 74
0
  0
ENDTAB
  0
TABLE
  2
LAYER
  5
2
100
AcDbSymbolTable
 70
36
  0
LAYER
  5
10
100
AcDbSymbolTableRecord
100
AcDbLayerTableRecord
  2
0
 70
0
 62
7
  6
CONTINUOUS
370
-3
390
F
  0
LAYER
  5
1FA
100
AcDbSymbolTableRecord
100
AcDbLayerTableRecord
  2
DEFAULT_1
 70
0
 62
7
  6
CENTER
370
-3
390
F
  0
LAYER
  5
1FB
100
AcDbSymbolTableRecord
100
AcDbLayerTableRecord
  2
DEFAULT_2
 70
0
 62
8
  6
HIDDEN
370
-3
390
F
  0
LAYER
  5
1FC
100
AcDbSymbolTableRecord
100
AcDbLayerTableRecord
  2
DEFAULT_3
 70
0
 62
7
  6
PHANTOM
370
-3
390
F
  0
LAYER
  5
1FD
100
AcDbSymbolTableRecord
100
AcDbLayerTableRecord
  2
1
 70
0
 62
7
  6
CONTINUOUS
370
-3
390
F
  0
LAYER
  5
1FE
100
AcDbSymbolTableRecord
100
AcDbLayerTableRecord
  2
2
 70
0
 62
7
  6
CONTINUOUS
370
-3
390
F
  0
LAYER
  5
1FF
100
AcDbSymbolTableRecord
100
AcDbLayerTableRecord
  2
3
 70
0
 62
7
  6
CONTINUOUS
370
-3
390
F
  0
LAYER
  5
200
100
AcDbSymbolTableRecord
100
AcDbLayerTableRecord
  2
4
 70
0
 62
7
  6
CONTINUOUS
370
-3
390
F
  0
LAYER
  5
201
100
AcDbSymbolTableRecord
100
AcDbLayerTableRecord
  2
5
 70
0
 62
7
  6
CONTINUOUS
370
-3
390
F
  0
LAYER
  5
202
100
AcDbSymbolTableRecord
100
AcDbLayerTableRecord
  2
6
 70
0
 62
7
  6
CONTINUOUS
370
-3
390
F
  0
LAYER
  5
203
100
AcDbSymbolTableRecord
100
AcDbLayerTableRecord
  2
7
 70
0
 62
7
  6
CONTINUOUS
370
-3
390
F
  0
LAYER
  5
204
100
AcDbSymbolTableRecord
100
AcDbLayerTableRecord
  2
8
 70
0
 62
7
  6
CONTINUOUS
370
-3
390
F
  0
LAYER
  5
205
100
AcDbSymbolTableRecord
100
AcDbLayerTableRecord
  2
9
 70
0
 62
7
  6
CONTINUOUS
370
-3
390
F
  0
LAYER
  5
206
100
AcDbSymbolTableRecord
100
AcDbLayerTableRecord
  2
10
 70
0
 62
7
  6
CONTINUOUS
370
-3
390
F
  0
LAYER
  5
207
100
AcDbSymbolTableRecord
100
AcDbLayerTableRecord
  2
11
 70
0
 62
7
  6
CONTINUOUS
370
-3
390
F
  0
LAYER
  5
208
100
AcDbSymbolTableRecord
100
AcDbLayerTableRecord
  2
12
 70
0
 62
7
  6
CONTINUOUS
370
-3
390
F
  0
LAYER
  5
209
100
AcDbSymbolTableRecord
100
AcDbLayerTableRecord
  2
13
 70
0
 62
7
  6
CONTINUOUS
370
-3
390
F
  0
LAYER
  5
20A
100
AcDbSymbolTableRecord
100
AcDbLayerTableRecord
  2
14
 70
0
 62
7
  6
CONTINUOUS
370
-3
390
F
  0
LAYER
  5
20B
100
AcDbSymbolTableRecord
100
AcDbLayerTableRecord
  2
15
 70
0
 62
7
  6
CONTINUOUS
370
-3
390
F
  0
LAYER
  5
20C
100
AcDbSymbolTableRecord
100
AcDbLayerTableRecord
  2
16
 70
0
 62
7
  6
CONTINUOUS
370
-3
390
F
  0
LAYER
  5
20D
100
AcDbSymbolTableRecord
100
AcDbLayerTableRecord
  2
17
 70
0
 62
7
  6
CONTINUOUS
370
-3
390
F
  0
LAYER
  5
20E
100
AcDbSymbolTableRecord
100
AcDbLayerTableRecord
  2
18
 70
0
 62
7
  6
CONTINUOUS
370
-3
390
F
  0
LAYER
  5
20F
100
AcDbSymbolTableRecord
100
AcDbLayerTableRecord
  2
19
 70
0
 62
7
  6
CONTINUOUS
370
-3
390
F
  0
LAYER
  5
210
100
AcDbSymbolTableRecord
100
AcDbLayerTableRecord
  2
20
 70
0
 62
7
  6
CONTINUOUS
370
-3
390
F
  0
LAYER
  5
211
100
AcDbSymbolTableRecord
100
AcDbLayerTableRecord
  2
21
 70
0
 62
7
  6
CONTINUOUS
370
-3
390
F
  0
LAYER
  5
212
100
AcDbSymbolTableRecord
100
AcDbLayerTableRecord
  2
22
 70
0
 62
7
  6
CONTINUOUS
370
-3
390
F
  0
ENDTAB
  0
TABLE
  2
STYLE
  5
3
100
AcDbSymbolTable
 70
1
  0
ENDTAB
  0
TABLE
  2
VIEW
  5
6
100
AcDbSymbolTable
 70
0
  0
ENDTAB
  0
TABLE
  2
UCS
  5
7
100
AcDbSymbolTable
 70
0
  0
ENDTAB
  0
TABLE
  2
APPID
  5
9
100
AcDbSymbolTable
 70
1
  0
APPID
  5
213
100
AcDbSymbolTableRecord
100
AcDbRegAppTableRecord
  2
ACAD
 70
0
  0
ENDTAB
  0
TABLE
  2
BLOCK_RECORD
  5
1
100
AcDbSymbolTable
 70
0
  0
BLOCK_RECORD
  5
214
100
AcDbSymbolTableRecord
100
AcDbBlockTableRecord
  2
*Model_Space
  0
BLOCK_RECORD
  5
215
100
AcDbSymbolTableRecord
100
AcDbBlockTableRecord
  2
*Paper_Space
  0
BLOCK_RECORD
  5
216
100
AcDbSymbolTableRecord
100
AcDbBlockTableRecord
  2
_CLOSED
  0
ENDTAB
  0
TABLE
  2
DIMSTYLE
  5
A
100
AcDbSymbolTable
 70
1
100
AcDbDimStyleTable
 71
0
  0
ENDTAB
  0
ENDSEC
  0
SECTION
  2
BLOCKS
  0
BLOCK
  5
20
100
AcDbEntity
  8
0
100
AcDbBlockBegin
  2
*Model_Space
 70
0
 10
0.0
 20
0.0
 30
0.0
  3
*Model_Space
  1

  0
ENDBLK
  5
21
100
AcDbEntity
  8
0
100
AcDbBlockEnd
  0
BLOCK
  5
1C
100
AcDbEntity
  8
0
100
AcDbBlockBegin
  2
*Paper_Space
 70
0
 10
0.0
 20
0.0
 30
0.0
  3
*Paper_Space
  1

  0
ENDBLK
  5
1D
100
AcDbEntity
  8
0
100
AcDbBlockEnd
  0
BLOCK
  5
217
100
AcDbEntity
  8
0
100
AcDbBlockBegin
  2
_CLOSED
 70
64
 10
0.0
 20
0.0
  3
_CLOSED
  1

  0
LINE
  5
218
100
AcDbEntity
  8
0
  6
BYBLOCK
 62
0
100
AcDbLine
 10
0.0
 20
0.0
 11
-1.0
 21
0.1666666667
  0
LINE
  5
219
100
AcDbEntity
  8
0
  6
BYBLOCK
 62
0
100
AcDbLine
 10
-1.0
 20
0.1666666667
 11
-1.0
 21
-0.1666666667
  0
LINE
  5
21A
100
AcDbEntity
  8
0
  6
BYBLOCK
 62
0
100
AcDbLine
 10
-1.0
 20
-0.1666666667
 11
0.0
 21
0.0
  0
LINE
  5
21B
100
AcDbEntity
  8
0
  6
BYBLOCK
 62
0
100
AcDbLine
 10
-1.0
 20
0.0
 11
0.0
 21
0.0
  0
ENDBLK
  5
21C
100
AcDbEntity
  8
0
  6
BYBLOCK
 62
0
100
AcDbBlockEnd
  0
ENDSEC
  0
SECTION
  2
ENTITIES
  0
3DFACE
  5
21D
100
AcDbEntity
  8
1
100
AcDbFace
  6
CONTINUOUS
 10
-17.7256957513
 20
16.8468793278
 30
0.0
 11
-17.36
 21
17.73
 31
0.0
 12
-17.6256957513
 22
-18.4168793278
 32
0.0
 13
-17.7256957513
 23
16.8468793278
 33
0.0
  0
3DFACE
  5
21E
100
AcDbEntity
  8
1
100
AcDbFace
  6
CONTINUOUS
 10
-17.36
 20
17.73
 30
0.0
 11
-17.7256957513
 21
18.6131206722
 31
0.0
 12
24.7
 22
23.9
 32
0.0
 13
-17.36
 23
17.73
 33
0.0
  0
3DFACE
  5
21F
100
AcDbEntity
  8
1
100
AcDbFace
  6
CONTINUOUS
 10
17.6256957513
 20
18.6131206722
 30
0.0
 11
-17.36
 21
17.73
 31
0.0
 12
24.7
 22
23.9
 32
0.0
 13
17.6256957513
 23
18.6131206722
 33
0.0
  0
3DFACE
  5
220
100
AcDbEntity
  8
1
100
AcDbFace
  6
CONTINUOUS
 10
-17.36
 20
17.73
 30
0.0
 11
17.6256957513
 21
18.6131206722
 31
0.0
 12
-8.3836833367
 22
-8.0163166633
 32
0.0
 13
-17.36
 23
17.73
 33
0.0
  0
3DFACE
  5
221
100
AcDbEntity
  8
1
100
AcDbFace
  6
CONTINUOUS
 10
-17.36
 20
17.73
 30
0.0
 11
-17.26
 21
-19.3
 31
0.0
 12
-17.6256957513
 22
-18.4168793278
 32
0.0
 13
-17.36
 23
17.73
 33
0.0
  0
3DFACE
  5
222
100
AcDbEntity
  8
1
100
AcDbFace
  6
CONTINUOUS
 10
-17.26
 20
-19.3
 30
0.0
 11
-17.36
 21
17.73
 31
0.0
 12
-8.3836833367
 22
-8.0163166633
 32
0.0
 13
-17.26
 23
-19.3
 33
0.0
  0
3DFACE
  5
223
100
AcDbEntity
  8
1
100
AcDbFace
  6
CONTINUOUS
 10
-18.61
 20
16.4804305667
 30
0.0
 11
-17.7256957513
 21
16.8468793278
 31
0.0
 12
-18.51
 22
-18.0504305667
 32
0.0
 13
-18.61
 23
16.4804305667
 33
0.0
  0
3DFACE
  5
224
100
AcDbEntity
  8
1
100
AcDbFace
  6
CONTINUOUS
 10
-18.51
 20
-18.0504305667
 30
0.0
 11
-17.7256957513
 21
16.8468793278
 31
0.0
 12
-17.6256957513
 22
-18.4168793278
 32
0.0
 13
-18.51
 23
-18.0504305667
 33
0.0
  0
3DFACE
  5
225
100
AcDbEntity
  8
1
100
AcDbFace
  6
CONTINUOUS
 10
-19.4943042487
 20
16.8468793278
 30
0.0
 11
-18.61
 21
16.4804305667
 31
0.0
 12
-19.1163166633
 22
-8.0163166633
 32
0.0
 13
-19.4943042487
 23
16.8468793278
 33
0.0
  0
3DFACE
  5
226
100
AcDbEntity
  8
1
100
AcDbFace
  6
CONTINUOUS
 10
-18.61
 20
16.4804305667
 30
0.0
 11
-18.51
 21
-18.0504305667
 31
0.0
 12
-18.75
 22
-8.9
 32
0.0
 13
-18.61
 23
16.4804305667
 33
0.0
  0
3DFACE
  5
227
100
AcDbEntity
  8
1
100
AcDbFace
  6
CONTINUOUS
 10
-18.61
 20
16.4804305667
 30
0.0
 11
-18.75
 21
-8.9
 31
0.0
 12
-19.1163166633
 22
-8.0163166633
 32
0.0
 13
-18.61
 23
16.4804305667
 33
0.0
  0
3DFACE
  5
228
100
AcDbEntity
  8
1
100
AcDbFace
  6
CONTINUOUS
 10
-19.86
 20
17.73
 30
0.0
 11
-19.4943042487
 21
16.8468793278
 31
0.0
 12
-20.0
 22
-7.65
 32
0.0
 13
-19.86
 23
17.73
 33
0.0
  0
3DFACE
  5
229
100
AcDbEntity
  8
1
100
AcDbFace
  6
CONTINUOUS
 10
-20.0
 20
-7.65
 30
0.0
 11
-19.4943042487
 21
16.8468793278
 31
0.0
 12
-19.1163166633
 22
-8.0163166633
 32
0.0
 13
-20.0
 23
-7.65
 33
0.0
  0
3DFACE
  5
22A
100
AcDbEntity
  8
1
100
AcDbFace
  6
CONTINUOUS
 10
-19.4943042487
 20
18.6131206722
 30
0.0
 11
-19.86
 21
17.73
 31
0.0
 12
-24.7
 22
23.9
 32
0.0
 13
-19.4943042487
 23
18.6131206722
 33
0.0
  0
3DFACE
  5
22B
100
AcDbEntity
  8
1
100
AcDbFace
  6
CONTINUOUS
 10
-19.86
 20
17.73
 30
0.0
 11
-24.7
 21
-23.9
 31
0.0
 12
-24.7
 22
23.9
 32
0.0
 13
-19.86
 23
17.73
 33
0.0
  0
3DFACE
  5
22C
100
AcDbEntity
  8
1
100
AcDbFace
  6
CONTINUOUS
 10
-24.7
 20
-23.9
 30
0.0
 11
-19.86
 21
17.73
 31
0.0
 12
-21.25
 22
-8.9
 32
0.0
 13
-24.7
 23
-23.9
 33
0.0
  0
3DFACE
  5
22D
100
AcDbEntity
  8
1
100
AcDbFace
  6
CONTINUOUS
 10
-21.25
 20
-8.9
 30
0.0
 11
-19.86
 21
17.73
 31
0.0
 12
-20.8836833367
 22
-8.0163166633
 32
0.0
 13
-21.25
 23
-8.9
 33
0.0
  0
3DFACE
  5
22E
100
AcDbEntity
  8
1
100
AcDbFace
  6
CONTINUOUS
 10
-20.8836833367
 20
-8.0163166633
 30
0.0
 11
-19.86
 21
17.73
 31
0.0
 12
-20.0
 22
-7.65
 32
0.0
 13
-20.8836833367
 23
-8.0163166633
 33
0.0
  0
3DFACE
  5
22F
100
AcDbEntity
  8
1
100
AcDbFace
  6
CONTINUOUS
 10
-18.61
 20
18.9795694333
 30
0.0
 11
-19.4943042487
 21
18.6131206722
 31
0.0
 12
-24.7
 22
23.9
 32
0.0
 13
-18.61
 23
18.9795694333
 33
0.0
  0
3DFACE
  5
230
100
AcDbEntity
  8
1
100
AcDbFace
  6
CONTINUOUS
 10
-17.7256957513
 20
18.6131206722
 30
0.0
 11
-18.61
 21
18.9795694333
 31
0.0
 12
24.7
 22
23.9
 32
0.0
 13
-17.7256957513
 23
18.6131206722
 33
0.0
  0
3DFACE
  5
231
100
AcDbEntity
  8
1
100
AcDbFace
  6
CONTINUOUS
 10
24.7
 20
23.9
 30
0.0
 11
-18.61
 21
18.9795694333
 31
0.0
 12
-24.7
 22
23.9
 32
0.0
 13
24.7
 23
23.9
 33
0.0
  0
3DFACE
  5
232
100
AcDbEntity
  8
1
100
AcDbFace
  6
CONTINUOUS
 10
19.3943042487
 20
16.8468793278
 30
0.0
 11
19.76
 21
17.73
 31
0.0
 12
19.1163166633
 22
-8.0163166633
 32
0.0
 13
19.3943042487
 23
16.8468793278
 33
0.0
  0
3DFACE
  5
233
100
AcDbEntity
  8
1
100
AcDbFace
  6
CONTINUOUS
 10
19.76
 20
17.73
 30
0.0
 11
19.3943042487
 21
18.6131206722
 31
0.0
 12
24.7
 22
23.9
 32
0.0
 13
19.76
 23
17.73
 33
0.0
  0
3DFACE
  5
234
100
AcDbEntity
  8
1
100
AcDbFace
  6
CONTINUOUS
 10
19.76
 20
17.73
 30
0.0
 11
24.7
 21
23.9
 31
0.0
 12
20.0
 22
-7.65
 32
0.0
 13
19.76
 23
17.73
 33
0.0
  0
3DFACE
  5
235
100
AcDbEntity
  8
1
100
AcDbFace
  6
CONTINUOUS
 10
19.1163166633
 20
-8.0163166633
 30
0.0
 11
19.76
 21
17.73
 31
0.0
 12
20.0
 22
-7.65
 32
0.0
 13
19.1163166633
 23
-8.0163166633
 33
0.0
  0
3DFACE
  5
236
100
AcDbEntity
  8
1
100
AcDbFace
  6
CONTINUOUS
 10
18.51
 20
16.4804305667
 30
0.0
 11
19.3943042487
 21
16.8468793278
 31
0.0
 12
18.75
 22
-8.9
 32
0.0
 13
18.51
 23
16.4804305667
 33
0.0
  0
3DFACE
  5
237
100
AcDbEntity
  8
1
100
AcDbFace
  6
CONTINUOUS
 10
18.75
 20
-8.9
 30
0.0
 11
19.3943042487
 21
16.8468793278
 31
0.0
 12
19.1163166633
 22
-8.0163166633
 32
0.0
 13
18.75
 23
-8.9
 33
0.0
  0
3DFACE
  5
238
100
AcDbEntity
  8
1
100
AcDbFace
  6
CONTINUOUS
 10
17.6256957513
 20
16.8468793278
 30
0.0
 11
18.51
 21
16.4804305667
 31
0.0
 12
17.6756957513
 22
-18.3168793278
 32
0.0
 13
17.6256957513
 23
16.8468793278
 33
0.0
  0
3DFACE
  5
239
100
AcDbEntity
  8
1
100
AcDbFace
  6
CONTINUOUS
 10
17.6756957513
 20
-18.3168793278
 30
0.0
 11
18.51
 21
16.4804305667
 31
0.0
 12
18.56
 22
-17.9504305667
 32
0.0
 13
17.6756957513
 23
-18.3168793278
 33
0.0
  0
3DFACE
  5
23A
100
AcDbEntity
  8
1
100
AcDbFace
  6
CONTINUOUS
 10
18.56
 20
-17.9504305667
 30
0.0
 11
18.51
 21
16.4804305667
 31
0.0
 12
18.75
 22
-8.9
 32
0.0
 13
18.56
 23
-17.9504305667
 33
0.0
  0
3DFACE
  5
23B
100
AcDbEntity
  8
1
100
AcDbFace
  6
CONTINUOUS
 10
17.26
 20
17.73
 30
0.0
 11
17.6256957513
 21
16.8468793278
 31
0.0
 12
17.31
 22
-19.2
 32
0.0
 13
17.26
 23
17.73
 33
0.0
  0
3DFACE
  5
23C
100
AcDbEntity
  8
1
100
AcDbFace
  6
CONTINUOUS
 10
17.31
 20
-19.2
 30
0.0
 11
17.6256957513
 21
16.8468793278
 31
0.0
 12
17.6756957513
 22
-18.3168793278
 32
0.0
 13
17.31
 23
-19.2
 33
0.0
  0
3DFACE
  5
23D
100
AcDbEntity
  8
1
100
AcDbFace
  6
CONTINUOUS
 10
17.6256957513
 20
18.6131206722
 30
0.0
 11
17.26
 21
17.73
 31
0.0
 12
-6.25
 22
-8.9
 32
0.0
 13
17.6256957513
 23
18.6131206722
 33
0.0
  0
3DFACE
  5
23E
100
AcDbEntity
  8
1
100
AcDbFace
  6
CONTINUOUS
 10
17.26
 20
17.73
 30
0.0
 11
17.31
 21
-19.2
 31
0.0
 12
8.75
 22
-8.9
 32
0.0
 13
17.26
 23
17.73
 33
0.0
  0
3DFACE
  5
23F
100
AcDbEntity
  8
1
100
AcDbFace
  6
CONTINUOUS
 10
17.26
 20
17.73
 30
0.0
 11
6.6163166633
 21
-8.0163166633
 31
0.0
 12
-6.25
 22
-8.9
 32
0.0
 13
17.26
 23
17.73
 33
0.0
  0
3DFACE
  5
240
100
AcDbEntity
  8
1
100
AcDbFace
  6
CONTINUOUS
 10
17.26
 20
17.73
 30
0.0
 11
8.75
 21
-8.9
 31
0.0
 12
8.3836833367
 22
-8.0163166633
 32
0.0
 13
17.26
 23
17.73
 33
0.0
  0
3DFACE
  5
241
100
AcDbEntity
  8
1
100
AcDbFace
  6
CONTINUOUS
 10
6.25
 20
-8.9
 30
0.0
 11
-6.25
 21
-8.9
 31
0.0
 12
6.6163166633
 22
-8.0163166633
 32
0.0
 13
6.25
 23
-8.9
 33
0.0
  0
3DFACE
  5
242
100
AcDbEntity
  8
1
100
AcDbFace
  6
CONTINUOUS
 10
6.6163166633
 20
-8.0163166633
 30
0.0
 11
17.26
 21
17.73
 31
0.0
 12
7.5
 22
-7.65
 32
0.0
 13
6.6163166633
 23
-8.0163166633
 33
0.0
  0
3DFACE
  5
243
100
AcDbEntity
  8
1
100
AcDbFace
  6
CONTINUOUS
 10
7.5
 20
-7.65
 30
0.0
 11
17.26
 21
17.73
 31
0.0
 12
8.3836833367
 22
-8.0163166633
 32
0.0
 13
7.5
 23
-7.65
 33
0.0
  0
3DFACE
  5
244
100
AcDbEntity
  8
1
100
AcDbFace
  6
CONTINUOUS
 10
18.51
 20
18.9795694333
 30
0.0
 11
17.6256957513
 21
18.6131206722
 31
0.0
 12
24.7
 22
23.9
 32
0.0
 13
18.51
 23
18.9795694333
 33
0.0
  0
3DFACE
  5
245
100
AcDbEntity
  8
1
100
AcDbFace
  6
CONTINUOUS
 10
17.6256957513
 20
18.6131206722
 30
0.0
 11
-6.25
 21
-8.9
 31
0.0
 12
-6.6163166633
 22
-8.0163166633
 32
0.0
 13
17.6256957513
 23
18.6131206722
 33
0.0
  0
3DFACE
  5
246
100
AcDbEntity
  8
1
100
AcDbFace
  6
CONTINUOUS
 10
-8.3836833367
 20
-8.0163166633
 30
0.0
 11
17.6256957513
 21
18.6131206722
 31
0.0
 12
-7.5
 22
-7.65
 32
0.0
 13
-8.3836833367
 23
-8.0163166633
 33
0.0
  0
3DFACE
  5
247
100
AcDbEntity
  8
1
100
AcDbFace
  6
CONTINUOUS
 10
-7.5
 20
-7.65
 30
0.0
 11
17.6256957513
 21
18.6131206722
 31
0.0
 12
-6.6163166633
 22
-8.0163166633
 32
0.0
 13
-7.5
 23
-7.65
 33
0.0
  0
3DFACE
  5
248
100
AcDbEntity
  8
1
100
AcDbFace
  6
CONTINUOUS
 10
19.3943042487
 20
18.6131206722
 30
0.0
 11
18.51
 21
18.9795694333
 31
0.0
 12
24.7
 22
23.9
 32
0.0
 13
19.3943042487
 23
18.6131206722
 33
0.0
  0
3DFACE
  5
249
100
AcDbEntity
  8
1
100
AcDbFace
  6
CONTINUOUS
 10
-17.6256957513
 20
-20.1831206722
 30
0.0
 11
-17.26
 21
-19.3
 31
0.0
 12
-8.75
 22
-8.9
 32
0.0
 13
-17.6256957513
 23
-20.1831206722
 33
0.0
  0
3DFACE
  5
24A
100
AcDbEntity
  8
1
100
AcDbFace
  6
CONTINUOUS
 10
-8.75
 20
-8.9
 30
0.0
 11
-17.26
 21
-19.3
 31
0.0
 12
-8.3836833367
 22
-8.0163166633
 32
0.0
 13
-8.75
 23
-8.9
 33
0.0
  0
3DFACE
  5
24B
100
AcDbEntity
  8
1
100
AcDbFace
  6
CONTINUOUS
 10
-18.51
 20
-20.5495694333
 30
0.0
 11
-17.6256957513
 21
-20.1831206722
 31
0.0
 12
-24.7
 22
-23.9
 32
0.0
 13
-18.51
 23
-20.5495694333
 33
0.0
  0
3DFACE
  5
24C
100
AcDbEntity
  8
1
100
AcDbFace
  6
CONTINUOUS
 10
-24.7
 20
-23.9
 30
0.0
 11
-17.6256957513
 21
-20.1831206722
 31
0.0
 12
6.25
 22
-8.9
 32
0.0
 13
-24.7
 23
-23.9
 33
0.0
  0
3DFACE
  5
24D
100
AcDbEntity
  8
1
100
AcDbFace
  6
CONTINUOUS
 10
-6.6163166633
 20
-9.7836833367
 30
0.0
 11
-17.6256957513
 21
-20.1831206722
 31
0.0
 12
-7.5
 22
-10.15
 32
0.0
 13
-6.6163166633
 23
-9.7836833367
 33
0.0
  0
3DFACE
  5
24E
100
AcDbEntity
  8
1
100
AcDbFace
  6
CONTINUOUS
 10
-17.6256957513
 20
-20.1831206722
 30
0.0
 11
-6.6163166633
 21
-9.7836833367
 31
0.0
 12
6.25
 22
-8.9
 32
0.0
 13
-17.6256957513
 23
-20.1831206722
 33
0.0
  0
3DFACE
  5
24F
100
AcDbEntity
  8
1
100
AcDbFace
  6
CONTINUOUS
 10
-7.5
 20
-10.15
 30
0.0
 11
-17.6256957513
 21
-20.1831206722
 31
0.0
 12
-8.3836833367
 22
-9.7836833367
 32
0.0
 13
-7.5
 23
-10.15
 33
0.0
  0
3DFACE
  5
250
100
AcDbEntity
  8
1
100
AcDbFace
  6
CONTINUOUS
 10
-8.3836833367
 20
-9.7836833367
 30
0.0
 11
-17.6256957513
 21
-20.1831206722
 31
0.0
 12
-8.75
 22
-8.9
 32
0.0
 13
-8.3836833367
 23
-9.7836833367
 33
0.0
  0
3DFACE
  5
251
100
AcDbEntity
  8
1
100
AcDbFace
  6
CONTINUOUS
 10
-19.3943042487
 20
-20.1831206722
 30
0.0
 11
-18.51
 21
-20.5495694333
 31
0.0
 12
-24.7
 22
-23.9
 32
0.0
 13
-19.3943042487
 23
-20.1831206722
 33
0.0
  0
3DFACE
  5
252
100
AcDbEntity
  8
1
100
AcDbFace
  6
CONTINUOUS
 10
-19.76
 20
-19.3
 30
0.0
 11
-19.3943042487
 21
-20.1831206722
 31
0.0
 12
-24.7
 22
-23.9
 32
0.0
 13
-19.76
 23
-19.3
 33
0.0
  0
3DFACE
  5
253
100
AcDbEntity
  8
1
100
AcDbFace
  6
CONTINUOUS
 10
-19.3943042487
 20
-18.4168793278
 30
0.0
 11
-19.76
 21
-19.3
 31
0.0
 12
-19.1163166633
 22
-9.7836833367
 32
0.0
 13
-19.3943042487
 23
-18.4168793278
 33
0.0
  0
3DFACE
  5
254
100
AcDbEntity
  8
1
100
AcDbFace
  6
CONTINUOUS
 10
-19.76
 20
-19.3
 30
0.0
 11
-24.7
 21
-23.9
 31
0.0
 12
-20.0
 22
-10.15
 32
0.0
 13
-19.76
 23
-19.3
 33
0.0
  0
3DFACE
  5
255
100
AcDbEntity
  8
1
100
AcDbFace
  6
CONTINUOUS
 10
-19.1163166633
 20
-9.7836833367
 30
0.0
 11
-19.76
 21
-19.3
 31
0.0
 12
-20.0
 22
-10.15
 32
0.0
 13
-19.1163166633
 23
-9.7836833367
 33
0.0
  0
3DFACE
  5
256
100
AcDbEntity
  8
1
100
AcDbFace
  6
CONTINUOUS
 10
-18.51
 20
-18.0504305667
 30
0.0
 11
-19.3943042487
 21
-18.4168793278
 31
0.0
 12
-18.75
 22
-8.9
 32
0.0
 13
-18.51
 23
-18.0504305667
 33
0.0
  0
3DFACE
  5
257
100
AcDbEntity
  8
1
100
AcDbFace
  6
CONTINUOUS
 10
-18.75
 20
-8.9
 30
0.0
 11
-19.3943042487
 21
-18.4168793278
 31
0.0
 12
-19.1163166633
 22
-9.7836833367
 32
0.0
 13
-18.75
 23
-8.9
 33
0.0
  0
3DFACE
  5
258
100
AcDbEntity
  8
1
100
AcDbFace
  6
CONTINUOUS
 10
19.4443042487
 20
-20.0831206722
 30
0.0
 11
19.81
 21
-19.2
 31
0.0
 12
24.7
 22
-23.9
 32
0.0
 13
19.4443042487
 23
-20.0831206722
 33
0.0
  0
3DFACE
  5
259
100
AcDbEntity
  8
1
100
AcDbFace
  6
CONTINUOUS
 10
19.81
 20
-19.2
 30
0.0
 11
19.4443042487
 21
-18.3168793278
 31
0.0
 12
20.0
 22
-10.15
 32
0.0
 13
19.81
 23
-19.2
 33
0.0
  0
3DFACE
  5
25A
100
AcDbEntity
  8
1
100
AcDbFace
  6
CONTINUOUS
 10
24.7
 20
-23.9
 30
0.0
 11
19.81
 21
-19.2
 31
0.0
 12
21.25
 22
-8.9
 32
0.0
 13
24.7
 23
-23.9
 33
0.0
  0
3DFACE
  5
25B
100
AcDbEntity
  8
1
100
AcDbFace
  6
CONTINUOUS
 10
21.25
 20
-8.9
 30
0.0
 11
19.81
 21
-19.2
 31
0.0
 12
20.8836833367
 22
-9.7836833367
 32
0.0
 13
21.25
 23
-8.9
 33
0.0
  0
3DFACE
  5
25C
100
AcDbEntity
  8
1
100
AcDbFace
  6
CONTINUOUS
 10
20.8836833367
 20
-9.7836833367
 30
0.0
 11
19.81
 21
-19.2
 31
0.0
 12
20.0
 22
-10.15
 32
0.0
 13
20.8836833367
 23
-9.7836833367
 33
0.0
  0
3DFACE
  5
25D
100
AcDbEntity
  8
1
100
AcDbFace
  6
CONTINUOUS
 10
18.56
 20
-20.4495694333
 30
0.0
 11
19.4443042487
 21
-20.0831206722
 31
0.0
 12
24.7
 22
-23.9
 32
0.0
 13
18.56
 23
-20.4495694333
 33
0.0
  0
3DFACE
  5
25E
100
AcDbEntity
  8
1
100
AcDbFace
  6
CONTINUOUS
 10
17.6756957513
 20
-20.0831206722
 30
0.0
 11
18.56
 21
-20.4495694333
 31
0.0
 12
-24.7
 22
-23.9
 32
0.0
 13
17.6756957513
 23
-20.0831206722
 33
0.0
  0
3DFACE
  5
25F
100
AcDbEntity
  8
1
100
AcDbFace
  6
CONTINUOUS
 10
-24.7
 20
-23.9
 30
0.0
 11
18.56
 21
-20.4495694333
 31
0.0
 12
24.7
 22
-23.9
 32
0.0
 13
-24.7
 23
-23.9
 33
0.0
  0
3DFACE
  5
260
100
AcDbEntity
  8
1
100
AcDbFace
  6
CONTINUOUS
 10
17.31
 20
-19.2
 30
0.0
 11
17.6756957513
 21
-20.0831206722
 31
0.0
 12
-24.7
 22
-23.9
 32
0.0
 13
17.31
 23
-19.2
 33
0.0
  0
3DFACE
  5
261
100
AcDbEntity
  8
1
100
AcDbFace
  6
CONTINUOUS
 10
17.31
 20
-19.2
 30
0.0
 11
-24.7
 21
-23.9
 31
0.0
 12
8.3836833367
 22
-9.7836833367
 32
0.0
 13
17.31
 23
-19.2
 33
0.0
  0
3DFACE
  5
262
100
AcDbEntity
  8
1
100
AcDbFace
  6
CONTINUOUS
 10
8.75
 20
-8.9
 30
0.0
 11
17.31
 21
-19.2
 31
0.0
 12
8.3836833367
 22
-9.7836833367
 32
0.0
 13
8.75
 23
-8.9
 33
0.0
  0
3DFACE
  5
263
100
AcDbEntity
  8
1
100
AcDbFace
  6
CONTINUOUS
 10
19.4443042487
 20
-18.3168793278
 30
0.0
 11
18.56
 21
-17.9504305667
 31
0.0
 12
19.1163166633
 22
-9.7836833367
 32
0.0
 13
19.4443042487
 23
-18.3168793278
 33
0.0
  0
3DFACE
  5
264
100
AcDbEntity
  8
1
100
AcDbFace
  6
CONTINUOUS
 10
19.1163166633
 20
-9.7836833367
 30
0.0
 11
18.56
 21
-17.9504305667
 31
0.0
 12
18.75
 22
-8.9
 32
0.0
 13
19.1163166633
 23
-9.7836833367
 33
0.0
  0
3DFACE
  5
265
100
AcDbEntity
  8
1
100
AcDbFace
  6
CONTINUOUS
 10
20.0
 20
-10.15
 30
0.0
 11
19.4443042487
 21
-18.3168793278
 31
0.0
 12
19.1163166633
 22
-9.7836833367
 32
0.0
 13
20.0
 23
-10.15
 33
0.0
  0
3DFACE
  5
266
100
AcDbEntity
  8
1
100
AcDbFace
  6
CONTINUOUS
 10
-20.0
 20
-10.15
 30
0.0
 11
-24.7
 21
-23.9
 31
0.0
 12
-20.8836833367
 22
-9.7836833367
 32
0.0
 13
-20.0
 23
-10.15
 33
0.0
  0
3DFACE
  5
267
100
AcDbEntity
  8
1
100
AcDbFace
  6
CONTINUOUS
 10
-20.8836833367
 20
-9.7836833367
 30
0.0
 11
-24.7
 21
-23.9
 31
0.0
 12
-21.25
 22
-8.9
 32
0.0
 13
-20.8836833367
 23
-9.7836833367
 33
0.0
  0
3DFACE
  5
268
100
AcDbEntity
  8
1
100
AcDbFace
  6
CONTINUOUS
 10
8.3836833367
 20
-9.7836833367
 30
0.0
 11
-24.7
 21
-23.9
 31
0.0
 12
7.5
 22
-10.15
 32
0.0
 13
8.3836833367
 23
-9.7836833367
 33
0.0
  0
3DFACE
  5
269
100
AcDbEntity
  8
1
100
AcDbFace
  6
CONTINUOUS
 10
7.5
 20
-10.15
 30
0.0
 11
-24.7
 21
-23.9
 31
0.0
 12
6.6163166633
 22
-9.7836833367
 32
0.0
 13
7.5
 23
-10.15
 33
0.0
  0
3DFACE
  5
26A
100
AcDbEntity
  8
1
100
AcDbFace
  6
CONTINUOUS
 10
6.6163166633
 20
-9.7836833367
 30
0.0
 11
-24.7
 21
-23.9
 31
0.0
 12
6.25
 22
-8.9
 32
0.0
 13
6.6163166633
 23
-9.7836833367
 33
0.0
  0
3DFACE
  5
26B
100
AcDbEntity
  8
1
100
AcDbFace
  6
CONTINUOUS
 10
24.7
 20
23.9
 30
0.0
 11
24.7
 21
-23.9
 31
0.0
 12
21.25
 22
-8.9
 32
0.0
 13
24.7
 23
23.9
 33
0.0
  0
3DFACE
  5
26C
100
AcDbEntity
  8
1
100
AcDbFace
  6
CONTINUOUS
 10
24.7
 20
23.9
 30
0.0
 11
21.25
 21
-8.9
 31
0.0
 12
20.8836833367
 22
-8.0163166633
 32
0.0
 13
24.7
 23
23.9
 33
0.0
  0
3DFACE
  5
26D
100
AcDbEntity
  8
1
100
AcDbFace
  6
CONTINUOUS
 10
20.0
 20
-7.65
 30
0.0
 11
24.7
 21
23.9
 31
0.0
 12
20.8836833367
 22
-8.0163166633
 32
0.0
 13
20.0
 23
-7.65
 33
0.0
  0
3DFACE
  5
26E
100
AcDbEntity
  8
1
100
AcDbFace
  6
CONTINUOUS
 10
-6.6163166633
 20
-9.7836833367
 30
0.0
 11
-6.25
 21
-8.9
 31
0.0
 12
6.25
 22
-8.9
 32
0.0
 13
-6.6163166633
 23
-9.7836833367
 33
0.0
  0
3DFACE
  5
26F
100
AcDbEntity
  8
2
100
AcDbFace
  6
CONTINUOUS
 10
-17.7256957513
 20
18.6131206722
 30
1.6
 11
-17.36
 21
17.73
 31
1.6
 12
-6.6163166633
 22
-8.0163166633
 32
1.6
 13
-17.7256957513
 23
18.6131206722
 33
1.6
  0
3DFACE
  5
270
100
AcDbEntity
  8
2
100
AcDbFace
  6
CONTINUOUS
 10
-17.36
 20
17.73
 30
1.6
 11
-17.7256957513
 21
16.8468793278
 31
1.6
 12
-17.6256957513
 22
-18.4168793278
 32
1.6
 13
-17.36
 23
17.73
 33
1.6
  0
3DFACE
  5
271
100
AcDbEntity
  8
2
100
AcDbFace
  6
CONTINUOUS
 10
-17.26
 20
-19.3
 30
1.6
 11
-17.36
 21
17.73
 31
1.6
 12
-17.6256957513
 22
-18.4168793278
 32
1.6
 13
-17.26
 23
-19.3
 33
1.6
  0
3DFACE
  5
272
100
AcDbEntity
  8
2
100
AcDbFace
  6
CONTINUOUS
 10
-17.36
 20
17.73
 30
1.6
 11
-17.26
 21
-19.3
 31
1.6
 12
-8.75
 22
-8.9
 32
1.6
 13
-17.36
 23
17.73
 33
1.6
  0
3DFACE
  5
273
100
AcDbEntity
  8
2
100
AcDbFace
  6
CONTINUOUS
 10
-6.6163166633
 20
-8.0163166633
 30
1.6
 11
-17.36
 21
17.73
 31
1.6
 12
-7.5
 22
-7.65
 32
1.6
 13
-6.6163166633
 23
-8.0163166633
 33
1.6
  0
3DFACE
  5
274
100
AcDbEntity
  8
2
100
AcDbFace
  6
CONTINUOUS
 10
-7.5
 20
-7.65
 30
1.6
 11
-17.36
 21
17.73
 31
1.6
 12
-8.3836833367
 22
-8.0163166633
 32
1.6
 13
-7.5
 23
-7.65
 33
1.6
  0
3DFACE
  5
275
100
AcDbEntity
  8
2
100
AcDbFace
  6
CONTINUOUS
 10
-8.3836833367
 20
-8.0163166633
 30
1.6
 11
-17.36
 21
17.73
 31
1.6
 12
-8.75
 22
-8.9
 32
1.6
 13
-8.3836833367
 23
-8.0163166633
 33
1.6
  0
3DFACE
  5
276
100
AcDbEntity
  8
2
100
AcDbFace
  6
CONTINUOUS
 10
-18.61
 20
18.9795694333
 30
1.6
 11
-17.7256957513
 21
18.6131206722
 31
1.6
 12
-24.7
 22
23.9
 32
1.6
 13
-18.61
 23
18.9795694333
 33
1.6
  0
3DFACE
  5
277
100
AcDbEntity
  8
2
100
AcDbFace
  6
CONTINUOUS
 10
-17.7256957513
 20
18.6131206722
 30
1.6
 11
17.26
 21
17.73
 31
1.6
 12
-24.7
 22
23.9
 32
1.6
 13
-17.7256957513
 23
18.6131206722
 33
1.6
  0
3DFACE
  5
278
100
AcDbEntity
  8
2
100
AcDbFace
  6
CONTINUOUS
 10
17.26
 20
17.73
 30
1.6
 11
-17.7256957513
 21
18.6131206722
 31
1.6
 12
8.3836833367
 22
-8.0163166633
 32
1.6
 13
17.26
 23
17.73
 33
1.6
  0
3DFACE
  5
279
100
AcDbEntity
  8
2
100
AcDbFace
  6
CONTINUOUS
 10
-17.7256957513
 20
18.6131206722
 30
1.6
 11
-6.6163166633
 21
-8.0163166633
 31
1.6
 12
6.25
 22
-8.9
 32
1.6
 13
-17.7256957513
 23
18.6131206722
 33
1.6
  0
3DFACE
  5
27A
100
AcDbEntity
  8
2
100
AcDbFace
  6
CONTINUOUS
 10
8.3836833367
 20
-8.0163166633
 30
1.6
 11
-17.7256957513
 21
18.6131206722
 31
1.6
 12
7.5
 22
-7.65
 32
1.6
 13
8.3836833367
 23
-8.0163166633
 33
1.6
  0
3DFACE
  5
27B
100
AcDbEntity
  8
2
100
AcDbFace
  6
CONTINUOUS
 10
7.5
 20
-7.65
 30
1.6
 11
-17.7256957513
 21
18.6131206722
 31
1.6
 12
6.6163166633
 22
-8.0163166633
 32
1.6
 13
7.5
 23
-7.65
 33
1.6
  0
3DFACE
  5
27C
100
AcDbEntity
  8
2
100
AcDbFace
  6
CONTINUOUS
 10
6.6163166633
 20
-8.0163166633
 30
1.6
 11
-17.7256957513
 21
18.6131206722
 31
1.6
 12
6.25
 22
-8.9
 32
1.6
 13
6.6163166633
 23
-8.0163166633
 33
1.6
  0
3DFACE
  5
27D
100
AcDbEntity
  8
2
100
AcDbFace
  6
CONTINUOUS
 10
-19.4943042487
 20
18.6131206722
 30
1.6
 11
-18.61
 21
18.9795694333
 31
1.6
 12
-24.7
 22
23.9
 32
1.6
 13
-19.4943042487
 23
18.6131206722
 33
1.6
  0
3DFACE
  5
27E
100
AcDbEntity
  8
2
100
AcDbFace
  6
CONTINUOUS
 10
-19.86
 20
17.73
 30
1.6
 11
-19.4943042487
 21
18.6131206722
 31
1.6
 12
-24.7
 22
23.9
 32
1.6
 13
-19.86
 23
17.73
 33
1.6
  0
3DFACE
  5
27F
100
AcDbEntity
  8
2
100
AcDbFace
  6
CONTINUOUS
 10
-19.4943042487
 20
16.8468793278
 30
1.6
 11
-19.86
 21
17.73
 31
1.6
 12
-19.1163166633
 22
-8.0163166633
 32
1.6
 13
-19.4943042487
 23
16.8468793278
 33
1.6
  0
3DFACE
  5
280
100
AcDbEntity
  8
2
100
AcDbFace
  6
CONTINUOUS
 10
-19.86
 20
17.73
 30
1.6
 11
-24.7
 21
23.9
 31
1.6
 12
-20.0
 22
-7.65
 32
1.6
 13
-19.86
 23
17.73
 33
1.6
  0
3DFACE
  5
281
100
AcDbEntity
  8
2
100
AcDbFace
  6
CONTINUOUS
 10
-19.1163166633
 20
-8.0163166633
 30
1.6
 11
-19.86
 21
17.73
 31
1.6
 12
-20.0
 22
-7.65
 32
1.6
 13
-19.1163166633
 23
-8.0163166633
 33
1.6
  0
3DFACE
  5
282
100
AcDbEntity
  8
2
100
AcDbFace
  6
CONTINUOUS
 10
-18.61
 20
16.4804305667
 30
1.6
 11
-19.4943042487
 21
16.8468793278
 31
1.6
 12
-18.75
 22
-8.9
 32
1.6
 13
-18.61
 23
16.4804305667
 33
1.6
  0
3DFACE
  5
283
100
AcDbEntity
  8
2
100
AcDbFace
  6
CONTINUOUS
 10
-18.75
 20
-8.9
 30
1.6
 11
-19.4943042487
 21
16.8468793278
 31
1.6
 12
-19.1163166633
 22
-8.0163166633
 32
1.6
 13
-18.75
 23
-8.9
 33
1.6
  0
3DFACE
  5
284
100
AcDbEntity
  8
2
100
AcDbFace
  6
CONTINUOUS
 10
-17.7256957513
 20
16.8468793278
 30
1.6
 11
-18.61
 21
16.4804305667
 31
1.6
 12
-18.51
 22
-18.0504305667
 32
1.6
 13
-17.7256957513
 23
16.8468793278
 33
1.6
  0
3DFACE
  5
285
100
AcDbEntity
  8
2
100
AcDbFace
  6
CONTINUOUS
 10
-18.51
 20
-18.0504305667
 30
1.6
 11
-18.61
 21
16.4804305667
 31
1.6
 12
-18.75
 22
-8.9
 32
1.6
 13
-18.51
 23
-18.0504305667
 33
1.6
  0
3DFACE
  5
286
100
AcDbEntity
  8
2
100
AcDbFace
  6
CONTINUOUS
 10
-17.6256957513
 20
-18.4168793278
 30
1.6
 11
-17.7256957513
 21
16.8468793278
 31
1.6
 12
-18.51
 22
-18.0504305667
 32
1.6
 13
-17.6256957513
 23
-18.4168793278
 33
1.6
  0
3DFACE
  5
287
100
AcDbEntity
  8
2
100
AcDbFace
  6
CONTINUOUS
 10
19.3943042487
 20
18.6131206722
 30
1.6
 11
19.76
 21
17.73
 31
1.6
 12
24.7
 22
23.9
 32
1.6
 13
19.3943042487
 23
18.6131206722
 33
1.6
  0
3DFACE
  5
288
100
AcDbEntity
  8
2
100
AcDbFace
  6
CONTINUOUS
 10
19.76
 20
17.73
 30
1.6
 11
19.3943042487
 21
16.8468793278
 31
1.6
 12
20.0
 22
-7.65
 32
1.6
 13
19.76
 23
17.73
 33
1.6
  0
3DFACE
  5
289
100
AcDbEntity
  8
2
100
AcDbFace
  6
CONTINUOUS
 10
24.7
 20
23.9
 30
1.6
 11
19.76
 21
17.73
 31
1.6
 12
24.7
 22
-23.9
 32
1.6
 13
24.7
 23
23.9
 33
1.6
  0
3DFACE
  5
28A
100
AcDbEntity
  8
2
100
AcDbFace
  6
CONTINUOUS
 10
24.7
 20
-23.9
 30
1.6
 11
19.76
 21
17.73
 31
1.6
 12
21.25
 22
-8.9
 32
1.6
 13
24.7
 23
-23.9
 33
1.6
  0
3DFACE
  5
28B
100
AcDbEntity
  8
2
100
AcDbFace
  6
CONTINUOUS
 10
21.25
 20
-8.9
 30
1.6
 11
19.76
 21
17.73
 31
1.6
 12
20.8836833367
 22
-8.0163166633
 32
1.6
 13
21.25
 23
-8.9
 33
1.6
  0
3DFACE
  5
28C
100
AcDbEntity
  8
2
100
AcDbFace
  6
CONTINUOUS
 10
20.8836833367
 20
-8.0163166633
 30
1.6
 11
19.76
 21
17.73
 31
1.6
 12
20.0
 22
-7.65
 32
1.6
 13
20.8836833367
 23
-8.0163166633
 33
1.6
  0
3DFACE
  5
28D
100
AcDbEntity
  8
2
100
AcDbFace
  6
CONTINUOUS
 10
18.51
 20
18.9795694333
 30
1.6
 11
19.3943042487
 21
18.6131206722
 31
1.6
 12
24.7
 22
23.9
 32
1.6
 13
18.51
 23
18.9795694333
 33
1.6
  0
3DFACE
  5
28E
100
AcDbEntity
  8
2
100
AcDbFace
  6
CONTINUOUS
 10
17.6256957513
 20
18.6131206722
 30
1.6
 11
18.51
 21
18.9795694333
 31
1.6
 12
-24.7
 22
23.9
 32
1.6
 13
17.6256957513
 23
18.6131206722
 33
1.6
  0
3DFACE
  5
28F
100
AcDbEntity
  8
2
100
AcDbFace
  6
CONTINUOUS
 10
-24.7
 20
23.9
 30
1.6
 11
18.51
 21
18.9795694333
 31
1.6
 12
24.7
 22
23.9
 32
1.6
 13
-24.7
 23
23.9
 33
1.6
  0
3DFACE
  5
290
100
AcDbEntity
  8
2
100
AcDbFace
  6
CONTINUOUS
 10
17.26
 20
17.73
 30
1.6
 11
17.6256957513
 21
18.6131206722
 31
1.6
 12
-24.7
 22
23.9
 32
1.6
 13
17.26
 23
17.73
 33
1.6
  0
3DFACE
  5
291
100
AcDbEntity
  8
2
100
AcDbFace
  6
CONTINUOUS
 10
17.6256957513
 20
16.8468793278
 30
1.6
 11
17.26
 21
17.73
 31
1.6
 12
17.31
 22
-19.2
 32
1.6
 13
17.6256957513
 23
16.8468793278
 33
1.6
  0
3DFACE
  5
292
100
AcDbEntity
  8
2
100
AcDbFace
  6
CONTINUOUS
 10
17.31
 20
-19.2
 30
1.6
 11
17.26
 21
17.73
 31
1.6
 12
8.75
 22
-8.9
 32
1.6
 13
17.31
 23
-19.2
 33
1.6
  0
3DFACE
  5
293
100
AcDbEntity
  8
2
100
AcDbFace
  6
CONTINUOUS
 10
8.75
 20
-8.9
 30
1.6
 11
17.26
 21
17.73
 31
1.6
 12
8.3836833367
 22
-8.0163166633
 32
1.6
 13
8.75
 23
-8.9
 33
1.6
  0
3DFACE
  5
294
100
AcDbEntity
  8
2
100
AcDbFace
  6
CONTINUOUS
 10
18.51
 20
16.4804305667
 30
1.6
 11
17.6256957513
 21
16.8468793278
 31
1.6
 12
17.6756957513
 22
-18.3168793278
 32
1.6
 13
18.51
 23
16.4804305667
 33
1.6
  0
3DFACE
  5
295
100
AcDbEntity
  8
2
100
AcDbFace
  6
CONTINUOUS
 10
17.6756957513
 20
-18.3168793278
 30
1.6
 11
17.6256957513
 21
16.8468793278
 31
1.6
 12
17.31
 22
-19.2
 32
1.6
 13
17.6756957513
 23
-18.3168793278
 33
1.6
  0
3DFACE
  5
296
100
AcDbEntity
  8
2
100
AcDbFace
  6
CONTINUOUS
 10
19.3943042487
 20
16.8468793278
 30
1.6
 11
18.51
 21
16.4804305667
 31
1.6
 12
19.1163166633
 22
-8.0163166633
 32
1.6
 13
19.3943042487
 23
16.8468793278
 33
1.6
  0
3DFACE
  5
297
100
AcDbEntity
  8
2
100
AcDbFace
  6
CONTINUOUS
 10
18.56
 20
-17.9504305667
 30
1.6
 11
18.51
 21
16.4804305667
 31
1.6
 12
17.6756957513
 22
-18.3168793278
 32
1.6
 13
18.56
 23
-17.9504305667
 33
1.6
  0
3DFACE
  5
298
100
AcDbEntity
  8
2
100
AcDbFace
  6
CONTINUOUS
 10
18.51
 20
16.4804305667
 30
1.6
 11
18.56
 21
-17.9504305667
 31
1.6
 12
18.75
 22
-8.9
 32
1.6
 13
18.51
 23
16.4804305667
 33
1.6
  0
3DFACE
  5
299
100
AcDbEntity
  8
2
100
AcDbFace
  6
CONTINUOUS
 10
19.1163166633
 20
-8.0163166633
 30
1.6
 11
18.51
 21
16.4804305667
 31
1.6
 12
18.75
 22
-8.9
 32
1.6
 13
19.1163166633
 23
-8.0163166633
 33
1.6
  0
3DFACE
  5
29A
100
AcDbEntity
  8
2
100
AcDbFace
  6
CONTINUOUS
 10
20.0
 20
-7.65
 30
1.6
 11
19.3943042487
 21
16.8468793278
 31
1.6
 12
19.1163166633
 22
-8.0163166633
 32
1.6
 13
20.0
 23
-7.65
 33
1.6
  0
3DFACE
  5
29B
100
AcDbEntity
  8
2
100
AcDbFace
  6
CONTINUOUS
 10
-17.26
 20
-19.3
 30
1.6
 11
-17.6256957513
 21
-20.1831206722
 31
1.6
 12
24.7
 22
-23.9
 32
1.6
 13
-17.26
 23
-19.3
 33
1.6
  0
3DFACE
  5
29C
100
AcDbEntity
  8
2
100
AcDbFace
  6
CONTINUOUS
 10
-17.26
 20
-19.3
 30
1.6
 11
24.7
 21
-23.9
 31
1.6
 12
-8.3836833367
 22
-9.7836833367
 32
1.6
 13
-17.26
 23
-19.3
 33
1.6
  0
3DFACE
  5
29D
100
AcDbEntity
  8
2
100
AcDbFace
  6
CONTINUOUS
 10
-8.75
 20
-8.9
 30
1.6
 11
-17.26
 21
-19.3
 31
1.6
 12
-8.3836833367
 22
-9.7836833367
 32
1.6
 13
-8.75
 23
-8.9
 33
1.6
  0
3DFACE
  5
29E
100
AcDbEntity
  8
2
100
AcDbFace
  6
CONTINUOUS
 10
-19.3943042487
 20
-18.4168793278
 30
1.6
 11
-18.51
 21
-18.0504305667
 31
1.6
 12
-19.1163166633
 22
-9.7836833367
 32
1.6
 13
-19.3943042487
 23
-18.4168793278
 33
1.6
  0
3DFACE
  5
29F
100
AcDbEntity
  8
2
100
AcDbFace
  6
CONTINUOUS
 10
-18.51
 20
-18.0504305667
 30
1.6
 11
-18.75
 21
-8.9
 31
1.6
 12
-19.1163166633
 22
-9.7836833367
 32
1.6
 13
-18.51
 23
-18.0504305667
 33
1.6
  0
3DFACE
  5
2A0
100
AcDbEntity
  8
2
100
AcDbFace
  6
CONTINUOUS
 10
-19.76
 20
-19.3
 30
1.6
 11
-19.3943042487
 21
-18.4168793278
 31
1.6
 12
-20.0
 22
-10.15
 32
1.6
 13
-19.76
 23
-19.3
 33
1.6
  0
3DFACE
  5
2A1
100
AcDbEntity
  8
2
100
AcDbFace
  6
CONTINUOUS
 10
-20.0
 20
-10.15
 30
1.6
 11
-19.3943042487
 21
-18.4168793278
 31
1.6
 12
-19.1163166633
 22
-9.7836833367
 32
1.6
 13
-20.0
 23
-10.15
 33
1.6
  0
3DFACE
  5
2A2
100
AcDbEntity
  8
2
100
AcDbFace
  6
CONTINUOUS
 10
-19.3943042487
 20
-20.1831206722
 30
1.6
 11
-19.76
 21
-19.3
 31
1.6
 12
-24.7
 22
-23.9
 32
1.6
 13
-19.3943042487
 23
-20.1831206722
 33
1.6
  0
3DFACE
  5
2A3
100
AcDbEntity
  8
2
100
AcDbFace
  6
CONTINUOUS
 10
-24.7
 20
-23.9
 30
1.6
 11
-19.76
 21
-19.3
 31
1.6
 12
-21.25
 22
-8.9
 32
1.6
 13
-24.7
 23
-23.9
 33
1.6
  0
3DFACE
  5
2A4
100
AcDbEntity
  8
2
100
AcDbFace
  6
CONTINUOUS
 10
-21.25
 20
-8.9
 30
1.6
 11
-19.76
 21
-19.3
 31
1.6
 12
-20.8836833367
 22
-9.7836833367
 32
1.6
 13
-21.25
 23
-8.9
 33
1.6
  0
3DFACE
  5
2A5
100
AcDbEntity
  8
2
100
AcDbFace
  6
CONTINUOUS
 10
-20.8836833367
 20
-9.7836833367
 30
1.6
 11
-19.76
 21
-19.3
 31
1.6
 12
-20.0
 22
-10.15
 32
1.6
 13
-20.8836833367
 23
-9.7836833367
 33
1.6
  0
3DFACE
  5
2A6
100
AcDbEntity
  8
2
100
AcDbFace
  6
CONTINUOUS
 10
-18.51
 20
-20.5495694333
 30
1.6
 11
-19.3943042487
 21
-20.1831206722
 31
1.6
 12
-24.7
 22
-23.9
 32
1.6
 13
-18.51
 23
-20.5495694333
 33
1.6
  0
3DFACE
  5
2A7
100
AcDbEntity
  8
2
100
AcDbFace
  6
CONTINUOUS
 10
-17.6256957513
 20
-20.1831206722
 30
1.6
 11
-18.51
 21
-20.5495694333
 31
1.6
 12
24.7
 22
-23.9
 32
1.6
 13
-17.6256957513
 23
-20.1831206722
 33
1.6
  0
3DFACE
  5
2A8
100
AcDbEntity
  8
2
100
AcDbFace
  6
CONTINUOUS
 10
-18.51
 20
-20.5495694333
 30
1.6
 11
-24.7
 21
-23.9
 31
1.6
 12
24.7
 22
-23.9
 32
1.6
 13
-18.51
 23
-20.5495694333
 33
1.6
  0
3DFACE
  5
2A9
100
AcDbEntity
  8
2
100
AcDbFace
  6
CONTINUOUS
 10
19.4443042487
 20
-18.3168793278
 30
1.6
 11
19.81
 21
-19.2
 31
1.6
 12
19.1163166633
 22
-9.7836833367
 32
1.6
 13
19.4443042487
 23
-18.3168793278
 33
1.6
  0
3DFACE
  5
2AA
100
AcDbEntity
  8
2
100
AcDbFace
  6
CONTINUOUS
 10
19.81
 20
-19.2
 30
1.6
 11
19.4443042487
 21
-20.0831206722
 31
1.6
 12
24.7
 22
-23.9
 32
1.6
 13
19.81
 23
-19.2
 33
1.6
  0
3DFACE
  5
2AB
100
AcDbEntity
  8
2
100
AcDbFace
  6
CONTINUOUS
 10
19.81
 20
-19.2
 30
1.6
 11
24.7
 21
-23.9
 31
1.6
 12
20.0
 22
-10.15
 32
1.6
 13
19.81
 23
-19.2
 33
1.6
  0
3DFACE
  5
2AC
100
AcDbEntity
  8
2
100
AcDbFace
  6
CONTINUOUS
 10
19.1163166633
 20
-9.7836833367
 30
1.6
 11
19.81
 21
-19.2
 31
1.6
 12
20.0
 22
-10.15
 32
1.6
 13
19.1163166633
 23
-9.7836833367
 33
1.6
  0
3DFACE
  5
2AD
100
AcDbEntity
  8
2
100
AcDbFace
  6
CONTINUOUS
 10
18.56
 20
-17.9504305667
 30
1.6
 11
19.4443042487
 21
-18.3168793278
 31
1.6
 12
18.75
 22
-8.9
 32
1.6
 13
18.56
 23
-17.9504305667
 33
1.6
  0
3DFACE
  5
2AE
100
AcDbEntity
  8
2
100
AcDbFace
  6
CONTINUOUS
 10
18.75
 20
-8.9
 30
1.6
 11
19.4443042487
 21
-18.3168793278
 31
1.6
 12
19.1163166633
 22
-9.7836833367
 32
1.6
 13
18.75
 23
-8.9
 33
1.6
  0
3DFACE
  5
2AF
100
AcDbEntity
  8
2
100
AcDbFace
  6
CONTINUOUS
 10
17.6756957513
 20
-20.0831206722
 30
1.6
 11
17.31
 21
-19.2
 31
1.6
 12
8.75
 22
-8.9
 32
1.6
 13
17.6756957513
 23
-20.0831206722
 33
1.6
  0
3DFACE
  5
2B0
100
AcDbEntity
  8
2
100
AcDbFace
  6
CONTINUOUS
 10
18.56
 20
-20.4495694333
 30
1.6
 11
17.6756957513
 21
-20.0831206722
 31
1.6
 12
24.7
 22
-23.9
 32
1.6
 13
18.56
 23
-20.4495694333
 33
1.6
  0
3DFACE
  5
2B1
100
AcDbEntity
  8
2
100
AcDbFace
  6
CONTINUOUS
 10
24.7
 20
-23.9
 30
1.6
 11
17.6756957513
 21
-20.0831206722
 31
1.6
 12
-6.25
 22
-8.9
 32
1.6
 13
24.7
 23
-23.9
 33
1.6
  0
3DFACE
  5
2B2
100
AcDbEntity
  8
2
100
AcDbFace
  6
CONTINUOUS
 10
-6.25
 20
-8.9
 30
1.6
 11
17.6756957513
 21
-20.0831206722
 31
1.6
 12
6.6163166633
 22
-9.7836833367
 32
1.6
 13
-6.25
 23
-8.9
 33
1.6
  0
3DFACE
  5
2B3
100
AcDbEntity
  8
2
100
AcDbFace
  6
CONTINUOUS
 10
17.6756957513
 20
-20.0831206722
 30
1.6
 11
8.75
 21
-8.9
 31
1.6
 12
8.3836833367
 22
-9.7836833367
 32
1.6
 13
17.6756957513
 23
-20.0831206722
 33
1.6
  0
3DFACE
  5
2B4
100
AcDbEntity
  8
2
100
AcDbFace
  6
CONTINUOUS
 10
6.6163166633
 20
-9.7836833367
 30
1.6
 11
17.6756957513
 21
-20.0831206722
 31
1.6
 12
7.5
 22
-10.15
 32
1.6
 13
6.6163166633
 23
-9.7836833367
 33
1.6
  0
3DFACE
  5
2B5
100
AcDbEntity
  8
2
100
AcDbFace
  6
CONTINUOUS
 10
7.5
 20
-10.15
 30
1.6
 11
17.6756957513
 21
-20.0831206722
 31
1.6
 12
8.3836833367
 22
-9.7836833367
 32
1.6
 13
7.5
 23
-10.15
 33
1.6
  0
3DFACE
  5
2B6
100
AcDbEntity
  8
2
100
AcDbFace
  6
CONTINUOUS
 10
19.4443042487
 20
-20.0831206722
 30
1.6
 11
18.56
 21
-20.4495694333
 31
1.6
 12
24.7
 22
-23.9
 32
1.6
 13
19.4443042487
 23
-20.0831206722
 33
1.6
  0
3DFACE
  5
2B7
100
AcDbEntity
  8
2
100
AcDbFace
  6
CONTINUOUS
 10
-24.7
 20
23.9
 30
1.6
 11
-24.7
 21
-23.9
 31
1.6
 12
-21.25
 22
-8.9
 32
1.6
 13
-24.7
 23
23.9
 33
1.6
  0
3DFACE
  5
2B8
100
AcDbEntity
  8
2
100
AcDbFace
  6
CONTINUOUS
 10
-20.0
 20
-7.65
 30
1.6
 11
-24.7
 21
23.9
 31
1.6
 12
-20.8836833367
 22
-8.0163166633
 32
1.6
 13
-20.0
 23
-7.65
 33
1.6
  0
3DFACE
  5
2B9
100
AcDbEntity
  8
2
100
AcDbFace
  6
CONTINUOUS
 10
-20.8836833367
 20
-8.0163166633
 30
1.6
 11
-24.7
 21
23.9
 31
1.6
 12
-21.25
 22
-8.9
 32
1.6
 13
-20.8836833367
 23
-8.0163166633
 33
1.6
  0
3DFACE
  5
2BA
100
AcDbEntity
  8
2
100
AcDbFace
  6
CONTINUOUS
 10
24.7
 20
-23.9
 30
1.6
 11
-6.25
 21
-8.9
 31
1.6
 12
-6.6163166633
 22
-9.7836833367
 32
1.6
 13
24.7
 23
-23.9
 33
1.6
  0
3DFACE
  5
2BB
100
AcDbEntity
  8
2
100
AcDbFace
  6
CONTINUOUS
 10
-8.3836833367
 20
-9.7836833367
 30
1.6
 11
24.7
 21
-23.9
 31
1.6
 12
-7.5
 22
-10.15
 32
1.6
 13
-8.3836833367
 23
-9.7836833367
 33
1.6
  0
3DFACE
  5
2BC
100
AcDbEntity
  8
2
100
AcDbFace
  6
CONTINUOUS
 10
-7.5
 20
-10.15
 30
1.6
 11
24.7
 21
-23.9
 31
1.6
 12
-6.6163166633
 22
-9.7836833367
 32
1.6
 13
-7.5
 23
-10.15
 33
1.6
  0
3DFACE
  5
2BD
100
AcDbEntity
  8
2
100
AcDbFace
  6
CONTINUOUS
 10
24.7
 20
-23.9
 30
1.6
 11
21.25
 21
-8.9
 31
1.6
 12
20.8836833367
 22
-9.7836833367
 32
1.6
 13
24.7
 23
-23.9
 33
1.6
  0
3DFACE
  5
2BE
100
AcDbEntity
  8
2
100
AcDbFace
  6
CONTINUOUS
 10
20.0
 20
-10.15
 30
1.6
 11
24.7
 21
-23.9
 31
1.6
 12
20.8836833367
 22
-9.7836833367
 32
1.6
 13
20.0
 23
-10.15
 33
1.6
  0
3DFACE
  5
2BF
100
AcDbEntity
  8
2
100
AcDbFace
  6
CONTINUOUS
 10
-6.6163166633
 20
-8.0163166633
 30
1.6
 11
-6.25
 21
-8.9
 31
1.6
 12
6.25
 22
-8.9
 32
1.6
 13
-6.6163166633
 23
-8.0163166633
 33
1.6
  0
3DFACE
  5
2C0
100
AcDbEntity
  8
2
100
AcDbFace
  6
CONTINUOUS
 10
6.25
 20
-8.9
 30
1.6
 11
-6.25
 21
-8.9
 31
1.6
 12
6.6163166633
 22
-9.7836833367
 32
1.6
 13
6.25
 23
-8.9
 33
1.6
  0
3DFACE
  5
2C1
100
AcDbEntity
  8
3
100
AcDbFace
  6
CONTINUOUS
 10
-17.36
 20
17.73
 30
0.0
 11
-17.7256957513
 21
16.8468793278
 31
0.0
 12
-17.36
 22
17.73
 32
1.6
 13
-17.36
 23
17.73
 33
0.0
  0
3DFACE
  5
2C2
100
AcDbEntity
  8
3
100
AcDbFace
  6
CONTINUOUS
 10
-17.7256957513
 20
16.8468793278
 30
0.0
 11
-18.61
 21
16.4804305667
 31
0.0
 12
-17.7256957513
 22
16.8468793278
 32
1.6
 13
-17.7256957513
 23
16.8468793278
 33
0.0
  0
3DFACE
  5
2C3
100
AcDbEntity
  8
3
100
AcDbFace
  6
CONTINUOUS
 10
-17.36
 20
17.73
 30
1.6
 11
-17.7256957513
 21
16.8468793278
 31
0.0
 12
-17.7256957513
 22
16.8468793278
 32
1.6
 13
-17.36
 23
17.73
 33
1.6
  0
3DFACE
  5
2C4
100
AcDbEntity
  8
3
100
AcDbFace
  6
CONTINUOUS
 10
-18.61
 20
16.4804305667
 30
0.0
 11
-19.4943042487
 21
16.8468793278
 31
0.0
 12
-18.61
 22
16.4804305667
 32
1.6
 13
-18.61
 23
16.4804305667
 33
0.0
  0
3DFACE
  5
2C5
100
AcDbEntity
  8
3
100
AcDbFace
  6
CONTINUOUS
 10
-18.61
 20
16.4804305667
 30
0.0
 11
-18.61
 21
16.4804305667
 31
1.6
 12
-17.7256957513
 22
16.8468793278
 32
1.6
 13
-18.61
 23
16.4804305667
 33
0.0
  0
3DFACE
  5
2C6
100
AcDbEntity
  8
3
100
AcDbFace
  6
CONTINUOUS
 10
-19.4943042487
 20
16.8468793278
 30
0.0
 11
-19.86
 21
17.73
 31
0.0
 12
-19.4943042487
 22
16.8468793278
 32
1.6
 13
-19.4943042487
 23
16.8468793278
 33
0.0
  0
3DFACE
  5
2C7
100
AcDbEntity
  8
3
100
AcDbFace
  6
CONTINUOUS
 10
-19.4943042487
 20
16.8468793278
 30
0.0
 11
-19.4943042487
 21
16.8468793278
 31
1.6
 12
-18.61
 22
16.4804305667
 32
1.6
 13
-19.4943042487
 23
16.8468793278
 33
0.0
  0
3DFACE
  5
2C8
100
AcDbEntity
  8
3
100
AcDbFace
  6
CONTINUOUS
 10
-19.86
 20
17.73
 30
0.0
 11
-19.86
 21
17.73
 31
1.6
 12
-19.4943042487
 22
16.8468793278
 32
1.6
 13
-19.86
 23
17.73
 33
0.0
  0
3DFACE
  5
2C9
100
AcDbEntity
  8
4
100
AcDbFace
  6
CONTINUOUS
 10
-17.7256957513
 20
18.6131206722
 30
0.0
 11
-17.36
 21
17.73
 31
0.0
 12
-17.7256957513
 22
18.6131206722
 32
1.6
 13
-17.7256957513
 23
18.6131206722
 33
0.0
  0
3DFACE
  5
2CA
100
AcDbEntity
  8
4
100
AcDbFace
  6
CONTINUOUS
 10
-17.36
 20
17.73
 30
0.0
 11
-17.36
 21
17.73
 31
1.6
 12
-17.7256957513
 22
18.6131206722
 32
1.6
 13
-17.36
 23
17.73
 33
0.0
  0
3DFACE
  5
2CB
100
AcDbEntity
  8
4
100
AcDbFace
  6
CONTINUOUS
 10
-19.86
 20
17.73
 30
0.0
 11
-19.4943042487
 21
18.6131206722
 31
0.0
 12
-19.86
 22
17.73
 32
1.6
 13
-19.86
 23
17.73
 33
0.0
  0
3DFACE
  5
2CC
100
AcDbEntity
  8
4
100
AcDbFace
  6
CONTINUOUS
 10
-19.4943042487
 20
18.6131206722
 30
0.0
 11
-18.61
 21
18.9795694333
 31
0.0
 12
-19.4943042487
 22
18.6131206722
 32
1.6
 13
-19.4943042487
 23
18.6131206722
 33
0.0
  0
3DFACE
  5
2CD
100
AcDbEntity
  8
4
100
AcDbFace
  6
CONTINUOUS
 10
-19.4943042487
 20
18.6131206722
 30
0.0
 11
-19.4943042487
 21
18.6131206722
 31
1.6
 12
-19.86
 22
17.73
 32
1.6
 13
-19.4943042487
 23
18.6131206722
 33
0.0
  0
3DFACE
  5
2CE
100
AcDbEntity
  8
4
100
AcDbFace
  6
CONTINUOUS
 10
-18.61
 20
18.9795694333
 30
0.0
 11
-17.7256957513
 21
18.6131206722
 31
0.0
 12
-18.61
 22
18.9795694333
 32
1.6
 13
-18.61
 23
18.9795694333
 33
0.0
  0
3DFACE
  5
2CF
100
AcDbEntity
  8
4
100
AcDbFace
  6
CONTINUOUS
 10
-18.61
 20
18.9795694333
 30
0.0
 11
-18.61
 21
18.9795694333
 31
1.6
 12
-19.4943042487
 22
18.6131206722
 32
1.6
 13
-18.61
 23
18.9795694333
 33
0.0
  0
3DFACE
  5
2D0
100
AcDbEntity
  8
4
100
AcDbFace
  6
CONTINUOUS
 10
-17.7256957513
 20
18.6131206722
 30
0.0
 11
-17.7256957513
 21
18.6131206722
 31
1.6
 12
-18.61
 22
18.9795694333
 32
1.6
 13
-17.7256957513
 23
18.6131206722
 33
0.0
  0
3DFACE
  5
2D1
100
AcDbEntity
  8
5
100
AcDbFace
  6
CONTINUOUS
 10
19.76
 20
17.73
 30
0.0
 11
19.3943042487
 21
16.8468793278
 31
0.0
 12
19.76
 22
17.73
 32
1.6
 13
19.76
 23
17.73
 33
0.0
  0
3DFACE
  5
2D2
100
AcDbEntity
  8
5
100
AcDbFace
  6
CONTINUOUS
 10
19.3943042487
 20
16.8468793278
 30
0.0
 11
18.51
 21
16.4804305667
 31
0.0
 12
19.3943042487
 22
16.8468793278
 32
1.6
 13
19.3943042487
 23
16.8468793278
 33
0.0
  0
3DFACE
  5
2D3
100
AcDbEntity
  8
5
100
AcDbFace
  6
CONTINUOUS
 10
19.76
 20
17.73
 30
1.6
 11
19.3943042487
 21
16.8468793278
 31
0.0
 12
19.3943042487
 22
16.8468793278
 32
1.6
 13
19.76
 23
17.73
 33
1.6
  0
3DFACE
  5
2D4
100
AcDbEntity
  8
5
100
AcDbFace
  6
CONTINUOUS
 10
18.51
 20
16.4804305667
 30
0.0
 11
17.6256957513
 21
16.8468793278
 31
0.0
 12
18.51
 22
16.4804305667
 32
1.6
 13
18.51
 23
16.4804305667
 33
0.0
  0
3DFACE
  5
2D5
100
AcDbEntity
  8
5
100
AcDbFace
  6
CONTINUOUS
 10
18.51
 20
16.4804305667
 30
0.0
 11
18.51
 21
16.4804305667
 31
1.6
 12
19.3943042487
 22
16.8468793278
 32
1.6
 13
18.51
 23
16.4804305667
 33
0.0
  0
3DFACE
  5
2D6
100
AcDbEntity
  8
5
100
AcDbFace
  6
CONTINUOUS
 10
17.6256957513
 20
16.8468793278
 30
0.0
 11
17.26
 21
17.73
 31
0.0
 12
17.6256957513
 22
16.8468793278
 32
1.6
 13
17.6256957513
 23
16.8468793278
 33
0.0
  0
3DFACE
  5
2D7
100
AcDbEntity
  8
5
100
AcDbFace
  6
CONTINUOUS
 10
17.6256957513
 20
16.8468793278
 30
0.0
 11
17.6256957513
 21
16.8468793278
 31
1.6
 12
18.51
 22
16.4804305667
 32
1.6
 13
17.6256957513
 23
16.8468793278
 33
0.0
  0
3DFACE
  5
2D8
100
AcDbEntity
  8
5
100
AcDbFace
  6
CONTINUOUS
 10
17.26
 20
17.73
 30
0.0
 11
17.26
 21
17.73
 31
1.6
 12
17.6256957513
 22
16.8468793278
 32
1.6
 13
17.26
 23
17.73
 33
0.0
  0
3DFACE
  5
2D9
100
AcDbEntity
  8
6
100
AcDbFace
  6
CONTINUOUS
 10
19.3943042487
 20
18.6131206722
 30
0.0
 11
19.76
 21
17.73
 31
0.0
 12
19.3943042487
 22
18.6131206722
 32
1.6
 13
19.3943042487
 23
18.6131206722
 33
0.0
  0
3DFACE
  5
2DA
100
AcDbEntity
  8
6
100
AcDbFace
  6
CONTINUOUS
 10
19.76
 20
17.73
 30
0.0
 11
19.76
 21
17.73
 31
1.6
 12
19.3943042487
 22
18.6131206722
 32
1.6
 13
19.76
 23
17.73
 33
0.0
  0
3DFACE
  5
2DB
100
AcDbEntity
  8
6
100
AcDbFace
  6
CONTINUOUS
 10
17.26
 20
17.73
 30
0.0
 11
17.6256957513
 21
18.6131206722
 31
0.0
 12
17.26
 22
17.73
 32
1.6
 13
17.26
 23
17.73
 33
0.0
  0
3DFACE
  5
2DC
100
AcDbEntity
  8
6
100
AcDbFace
  6
CONTINUOUS
 10
17.6256957513
 20
18.6131206722
 30
0.0
 11
18.51
 21
18.9795694333
 31
0.0
 12
17.6256957513
 22
18.6131206722
 32
1.6
 13
17.6256957513
 23
18.6131206722
 33
0.0
  0
3DFACE
  5
2DD
100
AcDbEntity
  8
6
100
AcDbFace
  6
CONTINUOUS
 10
17.6256957513
 20
18.6131206722
 30
0.0
 11
17.6256957513
 21
18.6131206722
 31
1.6
 12
17.26
 22
17.73
 32
1.6
 13
17.6256957513
 23
18.6131206722
 33
0.0
  0
3DFACE
  5
2DE
100
AcDbEntity
  8
6
100
AcDbFace
  6
CONTINUOUS
 10
18.51
 20
18.9795694333
 30
0.0
 11
19.3943042487
 21
18.6131206722
 31
0.0
 12
18.51
 22
18.9795694333
 32
1.6
 13
18.51
 23
18.9795694333
 33
0.0
  0
3DFACE
  5
2DF
100
AcDbEntity
  8
6
100
AcDbFace
  6
CONTINUOUS
 10
18.51
 20
18.9795694333
 30
0.0
 11
18.51
 21
18.9795694333
 31
1.6
 12
17.6256957513
 22
18.6131206722
 32
1.6
 13
18.51
 23
18.9795694333
 33
0.0
  0
3DFACE
  5
2E0
100
AcDbEntity
  8
6
100
AcDbFace
  6
CONTINUOUS
 10
19.3943042487
 20
18.6131206722
 30
0.0
 11
19.3943042487
 21
18.6131206722
 31
1.6
 12
18.51
 22
18.9795694333
 32
1.6
 13
19.3943042487
 23
18.6131206722
 33
0.0
  0
3DFACE
  5
2E1
100
AcDbEntity
  8
7
100
AcDbFace
  6
CONTINUOUS
 10
-17.26
 20
-19.3
 30
0.0
 11
-17.6256957513
 21
-20.1831206722
 31
0.0
 12
-17.26
 22
-19.3
 32
1.6
 13
-17.26
 23
-19.3
 33
0.0
  0
3DFACE
  5
2E2
100
AcDbEntity
  8
7
100
AcDbFace
  6
CONTINUOUS
 10
-17.6256957513
 20
-20.1831206722
 30
0.0
 11
-18.51
 21
-20.5495694333
 31
0.0
 12
-17.6256957513
 22
-20.1831206722
 32
1.6
 13
-17.6256957513
 23
-20.1831206722
 33
0.0
  0
3DFACE
  5
2E3
100
AcDbEntity
  8
7
100
AcDbFace
  6
CONTINUOUS
 10
-17.26
 20
-19.3
 30
1.6
 11
-17.6256957513
 21
-20.1831206722
 31
0.0
 12
-17.6256957513
 22
-20.1831206722
 32
1.6
 13
-17.26
 23
-19.3
 33
1.6
  0
3DFACE
  5
2E4
100
AcDbEntity
  8
7
100
AcDbFace
  6
CONTINUOUS
 10
-18.51
 20
-20.5495694333
 30
0.0
 11
-19.3943042487
 21
-20.1831206722
 31
0.0
 12
-18.51
 22
-20.5495694333
 32
1.6
 13
-18.51
 23
-20.5495694333
 33
0.0
  0
3DFACE
  5
2E5
100
AcDbEntity
  8
7
100
AcDbFace
  6
CONTINUOUS
 10
-18.51
 20
-20.5495694333
 30
0.0
 11
-18.51
 21
-20.5495694333
 31
1.6
 12
-17.6256957513
 22
-20.1831206722
 32
1.6
 13
-18.51
 23
-20.5495694333
 33
0.0
  0
3DFACE
  5
2E6
100
AcDbEntity
  8
7
100
AcDbFace
  6
CONTINUOUS
 10
-19.3943042487
 20
-20.1831206722
 30
0.0
 11
-19.76
 21
-19.3
 31
0.0
 12
-19.3943042487
 22
-20.1831206722
 32
1.6
 13
-19.3943042487
 23
-20.1831206722
 33
0.0
  0
3DFACE
  5
2E7
100
AcDbEntity
  8
7
100
AcDbFace
  6
CONTINUOUS
 10
-19.3943042487
 20
-20.1831206722
 30
0.0
 11
-19.3943042487
 21
-20.1831206722
 31
1.6
 12
-18.51
 22
-20.5495694333
 32
1.6
 13
-19.3943042487
 23
-20.1831206722
 33
0.0
  0
3DFACE
  5
2E8
100
AcDbEntity
  8
7
100
AcDbFace
  6
CONTINUOUS
 10
-19.76
 20
-19.3
 30
0.0
 11
-19.76
 21
-19.3
 31
1.6
 12
-19.3943042487
 22
-20.1831206722
 32
1.6
 13
-19.76
 23
-19.3
 33
0.0
  0
3DFACE
  5
2E9
100
AcDbEntity
  8
8
100
AcDbFace
  6
CONTINUOUS
 10
-17.6256957513
 20
-18.4168793278
 30
0.0
 11
-17.26
 21
-19.3
 31
0.0
 12
-17.6256957513
 22
-18.4168793278
 32
1.6
 13
-17.6256957513
 23
-18.4168793278
 33
0.0
  0
3DFACE
  5
2EA
100
AcDbEntity
  8
8
100
AcDbFace
  6
CONTINUOUS
 10
-17.26
 20
-19.3
 30
0.0
 11
-17.26
 21
-19.3
 31
1.6
 12
-17.6256957513
 22
-18.4168793278
 32
1.6
 13
-17.26
 23
-19.3
 33
0.0
  0
3DFACE
  5
2EB
100
AcDbEntity
  8
8
100
AcDbFace
  6
CONTINUOUS
 10
-19.76
 20
-19.3
 30
0.0
 11
-19.3943042487
 21
-18.4168793278
 31
0.0
 12
-19.76
 22
-19.3
 32
1.6
 13
-19.76
 23
-19.3
 33
0.0
  0
3DFACE
  5
2EC
100
AcDbEntity
  8
8
100
AcDbFace
  6
CONTINUOUS
 10
-19.3943042487
 20
-18.4168793278
 30
0.0
 11
-18.51
 21
-18.0504305667
 31
0.0
 12
-19.3943042487
 22
-18.4168793278
 32
1.6
 13
-19.3943042487
 23
-18.4168793278
 33
0.0
  0
3DFACE
  5
2ED
100
AcDbEntity
  8
8
100
AcDbFace
  6
CONTINUOUS
 10
-19.3943042487
 20
-18.4168793278
 30
0.0
 11
-19.3943042487
 21
-18.4168793278
 31
1.6
 12
-19.76
 22
-19.3
 32
1.6
 13
-19.3943042487
 23
-18.4168793278
 33
0.0
  0
3DFACE
  5
2EE
100
AcDbEntity
  8
8
100
AcDbFace
  6
CONTINUOUS
 10
-18.51
 20
-18.0504305667
 30
0.0
 11
-17.6256957513
 21
-18.4168793278
 31
0.0
 12
-18.51
 22
-18.0504305667
 32
1.6
 13
-18.51
 23
-18.0504305667
 33
0.0
  0
3DFACE
  5
2EF
100
AcDbEntity
  8
8
100
AcDbFace
  6
CONTINUOUS
 10
-18.51
 20
-18.0504305667
 30
0.0
 11
-18.51
 21
-18.0504305667
 31
1.6
 12
-19.3943042487
 22
-18.4168793278
 32
1.6
 13
-18.51
 23
-18.0504305667
 33
0.0
  0
3DFACE
  5
2F0
100
AcDbEntity
  8
8
100
AcDbFace
  6
CONTINUOUS
 10
-17.6256957513
 20
-18.4168793278
 30
0.0
 11
-17.6256957513
 21
-18.4168793278
 31
1.6
 12
-18.51
 22
-18.0504305667
 32
1.6
 13
-17.6256957513
 23
-18.4168793278
 33
0.0
  0
3DFACE
  5
2F1
100
AcDbEntity
  8
9
100
AcDbFace
  6
CONTINUOUS
 10
19.81
 20
-19.2
 30
0.0
 11
19.4443042487
 21
-20.0831206722
 31
0.0
 12
19.81
 22
-19.2
 32
1.6
 13
19.81
 23
-19.2
 33
0.0
  0
3DFACE
  5
2F2
100
AcDbEntity
  8
9
100
AcDbFace
  6
CONTINUOUS
 10
19.4443042487
 20
-20.0831206722
 30
0.0
 11
18.56
 21
-20.4495694333
 31
0.0
 12
19.4443042487
 22
-20.0831206722
 32
1.6
 13
19.4443042487
 23
-20.0831206722
 33
0.0
  0
3DFACE
  5
2F3
100
AcDbEntity
  8
9
100
AcDbFace
  6
CONTINUOUS
 10
19.81
 20
-19.2
 30
1.6
 11
19.4443042487
 21
-20.0831206722
 31
0.0
 12
19.4443042487
 22
-20.0831206722
 32
1.6
 13
19.81
 23
-19.2
 33
1.6
  0
3DFACE
  5
2F4
100
AcDbEntity
  8
9
100
AcDbFace
  6
CONTINUOUS
 10
18.56
 20
-20.4495694333
 30
0.0
 11
17.6756957513
 21
-20.0831206722
 31
0.0
 12
18.56
 22
-20.4495694333
 32
1.6
 13
18.56
 23
-20.4495694333
 33
0.0
  0
3DFACE
  5
2F5
100
AcDbEntity
  8
9
100
AcDbFace
  6
CONTINUOUS
 10
18.56
 20
-20.4495694333
 30
0.0
 11
18.56
 21
-20.4495694333
 31
1.6
 12
19.4443042487
 22
-20.0831206722
 32
1.6
 13
18.56
 23
-20.4495694333
 33
0.0
  0
3DFACE
  5
2F6
100
AcDbEntity
  8
9
100
AcDbFace
  6
CONTINUOUS
 10
17.6756957513
 20
-20.0831206722
 30
0.0
 11
17.31
 21
-19.2
 31
0.0
 12
17.6756957513
 22
-20.0831206722
 32
1.6
 13
17.6756957513
 23
-20.0831206722
 33
0.0
  0
3DFACE
  5
2F7
100
AcDbEntity
  8
9
100
AcDbFace
  6
CONTINUOUS
 10
17.6756957513
 20
-20.0831206722
 30
0.0
 11
17.6756957513
 21
-20.0831206722
 31
1.6
 12
18.56
 22
-20.4495694333
 32
1.6
 13
17.6756957513
 23
-20.0831206722
 33
0.0
  0
3DFACE
  5
2F8
100
AcDbEntity
  8
9
100
AcDbFace
  6
CONTINUOUS
 10
17.31
 20
-19.2
 30
0.0
 11
17.31
 21
-19.2
 31
1.6
 12
17.6756957513
 22
-20.0831206722
 32
1.6
 13
17.31
 23
-19.2
 33
0.0
  0
3DFACE
  5
2F9
100
AcDbEntity
  8
10
100
AcDbFace
  6
CONTINUOUS
 10
19.4443042487
 20
-18.3168793278
 30
0.0
 11
19.81
 21
-19.2
 31
0.0
 12
19.4443042487
 22
-18.3168793278
 32
1.6
 13
19.4443042487
 23
-18.3168793278
 33
0.0
  0
3DFACE
  5
2FA
100
AcDbEntity
  8
10
100
AcDbFace
  6
CONTINUOUS
 10
19.81
 20
-19.2
 30
0.0
 11
19.81
 21
-19.2
 31
1.6
 12
19.4443042487
 22
-18.3168793278
 32
1.6
 13
19.81
 23
-19.2
 33
0.0
  0
3DFACE
  5
2FB
100
AcDbEntity
  8
10
100
AcDbFace
  6
CONTINUOUS
 10
17.31
 20
-19.2
 30
0.0
 11
17.6756957513
 21
-18.3168793278
 31
0.0
 12
17.31
 22
-19.2
 32
1.6
 13
17.31
 23
-19.2
 33
0.0
  0
3DFACE
  5
2FC
100
AcDbEntity
  8
10
100
AcDbFace
  6
CONTINUOUS
 10
17.6756957513
 20
-18.3168793278
 30
0.0
 11
18.56
 21
-17.9504305667
 31
0.0
 12
17.6756957513
 22
-18.3168793278
 32
1.6
 13
17.6756957513
 23
-18.3168793278
 33
0.0
  0
3DFACE
  5
2FD
100
AcDbEntity
  8
10
100
AcDbFace
  6
CONTINUOUS
 10
17.6756957513
 20
-18.3168793278
 30
0.0
 11
17.6756957513
 21
-18.3168793278
 31
1.6
 12
17.31
 22
-19.2
 32
1.6
 13
17.6756957513
 23
-18.3168793278
 33
0.0
  0
3DFACE
  5
2FE
100
AcDbEntity
  8
10
100
AcDbFace
  6
CONTINUOUS
 10
18.56
 20
-17.9504305667
 30
0.0
 11
19.4443042487
 21
-18.3168793278
 31
0.0
 12
18.56
 22
-17.9504305667
 32
1.6
 13
18.56
 23
-17.9504305667
 33
0.0
  0
3DFACE
  5
2FF
100
AcDbEntity
  8
10
100
AcDbFace
  6
CONTINUOUS
 10
18.56
 20
-17.9504305667
 30
0.0
 11
18.56
 21
-17.9504305667
 31
1.6
 12
17.6756957513
 22
-18.3168793278
 32
1.6
 13
18.56
 23
-17.9504305667
 33
0.0
  0
3DFACE
  5
300
100
AcDbEntity
  8
10
100
AcDbFace
  6
CONTINUOUS
 10
19.4443042487
 20
-18.3168793278
 30
0.0
 11
19.4443042487
 21
-18.3168793278
 31
1.6
 12
18.56
 22
-17.9504305667
 32
1.6
 13
19.4443042487
 23
-18.3168793278
 33
0.0
  0
3DFACE
  5
301
100
AcDbEntity
  8
11
100
AcDbFace
  6
CONTINUOUS
 10
-24.7
 20
-23.9
 30
0.0
 11
24.7
 21
-23.9
 31
0.0
 12
-24.7
 22
-23.9
 32
1.6
 13
-24.7
 23
-23.9
 33
0.0
  0
3DFACE
  5
302
100
AcDbEntity
  8
11
100
AcDbFace
  6
CONTINUOUS
 10
-24.7
 20
-23.9
 30
1.6
 11
24.7
 21
-23.9
 31
0.0
 12
24.7
 22
-23.9
 32
1.6
 13
-24.7
 23
-23.9
 33
1.6
  0
3DFACE
  5
303
100
AcDbEntity
  8
12
100
AcDbFace
  6
CONTINUOUS
 10
24.7
 20
-23.9
 30
0.0
 11
24.7
 21
23.9
 31
0.0
 12
24.7
 22
-23.9
 32
1.6
 13
24.7
 23
-23.9
 33
0.0
  0
3DFACE
  5
304
100
AcDbEntity
  8
12
100
AcDbFace
  6
CONTINUOUS
 10
24.7
 20
23.9
 30
0.0
 11
24.7
 21
23.9
 31
1.6
 12
24.7
 22
-23.9
 32
1.6
 13
24.7
 23
23.9
 33
0.0
  0
3DFACE
  5
305
100
AcDbEntity
  8
13
100
AcDbFace
  6
CONTINUOUS
 10
24.7
 20
23.9
 30
0.0
 11
-24.7
 21
23.9
 31
0.0
 12
24.7
 22
23.9
 32
1.6
 13
24.7
 23
23.9
 33
0.0
  0
3DFACE
  5
306
100
AcDbEntity
  8
13
100
AcDbFace
  6
CONTINUOUS
 10
-24.7
 20
23.9
 30
0.0
 11
-24.7
 21
23.9
 31
1.6
 12
24.7
 22
23.9
 32
1.6
 13
-24.7
 23
23.9
 33
0.0
  0
3DFACE
  5
307
100
AcDbEntity
  8
14
100
AcDbFace
  6
CONTINUOUS
 10
-24.7
 20
23.9
 30
0.0
 11
-24.7
 21
-23.9
 31
0.0
 12
-24.7
 22
23.9
 32
1.6
 13
-24.7
 23
23.9
 33
0.0
  0
3DFACE
  5
308
100
AcDbEntity
  8
14
100
AcDbFace
  6
CONTINUOUS
 10
-24.7
 20
-23.9
 30
0.0
 11
-24.7
 21
-23.9
 31
1.6
 12
-24.7
 22
23.9
 32
1.6
 13
-24.7
 23
-23.9
 33
0.0
  0
3DFACE
  5
309
100
AcDbEntity
  8
15
100
AcDbFace
  6
CONTINUOUS
 10
-19.1163166633
 20
-8.0163166633
 30
0.0
 11
-18.75
 21
-8.9
 31
0.0
 12
-19.1163166633
 22
-8.0163166633
 32
1.6
 13
-19.1163166633
 23
-8.0163166633
 33
0.0
  0
3DFACE
  5
30A
100
AcDbEntity
  8
15
100
AcDbFace
  6
CONTINUOUS
 10
-18.75
 20
-8.9
 30
0.0
 11
-18.75
 21
-8.9
 31
1.6
 12
-19.1163166633
 22
-8.0163166633
 32
1.6
 13
-18.75
 23
-8.9
 33
0.0
  0
3DFACE
  5
30B
100
AcDbEntity
  8
15
100
AcDbFace
  6
CONTINUOUS
 10
-21.25
 20
-8.9
 30
0.0
 11
-20.8836833367
 21
-8.0163166633
 31
0.0
 12
-21.25
 22
-8.9
 32
1.6
 13
-21.25
 23
-8.9
 33
0.0
  0
3DFACE
  5
30C
100
AcDbEntity
  8
15
100
AcDbFace
  6
CONTINUOUS
 10
-20.8836833367
 20
-8.0163166633
 30
0.0
 11
-20.0
 21
-7.65
 31
0.0
 12
-20.8836833367
 22
-8.0163166633
 32
1.6
 13
-20.8836833367
 23
-8.0163166633
 33
0.0
  0
3DFACE
  5
30D
100
AcDbEntity
  8
15
100
AcDbFace
  6
CONTINUOUS
 10
-20.8836833367
 20
-8.0163166633
 30
0.0
 11
-20.8836833367
 21
-8.0163166633
 31
1.6
 12
-21.25
 22
-8.9
 32
1.6
 13
-20.8836833367
 23
-8.0163166633
 33
0.0
  0
3DFACE
  5
30E
100
AcDbEntity
  8
15
100
AcDbFace
  6
CONTINUOUS
 10
-20.0
 20
-7.65
 30
0.0
 11
-19.1163166633
 21
-8.0163166633
 31
0.0
 12
-20.0
 22
-7.65
 32
1.6
 13
-20.0
 23
-7.65
 33
0.0
  0
3DFACE
  5
30F
100
AcDbEntity
  8
15
100
AcDbFace
  6
CONTINUOUS
 10
-20.0
 20
-7.65
 30
0.0
 11
-20.0
 21
-7.65
 31
1.6
 12
-20.8836833367
 22
-8.0163166633
 32
1.6
 13
-20.0
 23
-7.65
 33
0.0
  0
3DFACE
  5
310
100
AcDbEntity
  8
15
100
AcDbFace
  6
CONTINUOUS
 10
-19.1163166633
 20
-8.0163166633
 30
0.0
 11
-19.1163166633
 21
-8.0163166633
 31
1.6
 12
-20.0
 22
-7.65
 32
1.6
 13
-19.1163166633
 23
-8.0163166633
 33
0.0
  0
3DFACE
  5
311
100
AcDbEntity
  8
16
100
AcDbFace
  6
CONTINUOUS
 10
-18.75
 20
-8.9
 30
0.0
 11
-19.1163166633
 21
-9.7836833367
 31
0.0
 12
-18.75
 22
-8.9
 32
1.6
 13
-18.75
 23
-8.9
 33
0.0
  0
3DFACE
  5
312
100
AcDbEntity
  8
16
100
AcDbFace
  6
CONTINUOUS
 10
-19.1163166633
 20
-9.7836833367
 30
0.0
 11
-20.0
 21
-10.15
 31
0.0
 12
-19.1163166633
 22
-9.7836833367
 32
1.6
 13
-19.1163166633
 23
-9.7836833367
 33
0.0
  0
3DFACE
  5
313
100
AcDbEntity
  8
16
100
AcDbFace
  6
CONTINUOUS
 10
-18.75
 20
-8.9
 30
1.6
 11
-19.1163166633
 21
-9.7836833367
 31
0.0
 12
-19.1163166633
 22
-9.7836833367
 32
1.6
 13
-18.75
 23
-8.9
 33
1.6
  0
3DFACE
  5
314
100
AcDbEntity
  8
16
100
AcDbFace
  6
CONTINUOUS
 10
-20.0
 20
-10.15
 30
0.0
 11
-20.8836833367
 21
-9.7836833367
 31
0.0
 12
-20.0
 22
-10.15
 32
1.6
 13
-20.0
 23
-10.15
 33
0.0
  0
3DFACE
  5
315
100
AcDbEntity
  8
16
100
AcDbFace
  6
CONTINUOUS
 10
-20.0
 20
-10.15
 30
0.0
 11
-20.0
 21
-10.15
 31
1.6
 12
-19.1163166633
 22
-9.7836833367
 32
1.6
 13
-20.0
 23
-10.15
 33
0.0
  0
3DFACE
  5
316
100
AcDbEntity
  8
16
100
AcDbFace
  6
CONTINUOUS
 10
-20.8836833367
 20
-9.7836833367
 30
0.0
 11
-21.25
 21
-8.9
 31
0.0
 12
-20.8836833367
 22
-9.7836833367
 32
1.6
 13
-20.8836833367
 23
-9.7836833367
 33
0.0
  0
3DFACE
  5
317
100
AcDbEntity
  8
16
100
AcDbFace
  6
CONTINUOUS
 10
-20.8836833367
 20
-9.7836833367
 30
0.0
 11
-20.8836833367
 21
-9.7836833367
 31
1.6
 12
-20.0
 22
-10.15
 32
1.6
 13
-20.8836833367
 23
-9.7836833367
 33
0.0
  0
3DFACE
  5
318
100
AcDbEntity
  8
16
100
AcDbFace
  6
CONTINUOUS
 10
-21.25
 20
-8.9
 30
0.0
 11
-21.25
 21
-8.9
 31
1.6
 12
-20.8836833367
 22
-9.7836833367
 32
1.6
 13
-21.25
 23
-8.9
 33
0.0
  0
3DFACE
  5
319
100
AcDbEntity
  8
17
100
AcDbFace
  6
CONTINUOUS
 10
-6.6163166633
 20
-8.0163166633
 30
0.0
 11
-6.25
 21
-8.9
 31
0.0
 12
-6.6163166633
 22
-8.0163166633
 32
1.6
 13
-6.6163166633
 23
-8.0163166633
 33
0.0
  0
3DFACE
  5
31A
100
AcDbEntity
  8
17
100
AcDbFace
  6
CONTINUOUS
 10
-6.25
 20
-8.9
 30
0.0
 11
-6.25
 21
-8.9
 31
1.6
 12
-6.6163166633
 22
-8.0163166633
 32
1.6
 13
-6.25
 23
-8.9
 33
0.0
  0
3DFACE
  5
31B
100
AcDbEntity
  8
17
100
AcDbFace
  6
CONTINUOUS
 10
-8.75
 20
-8.9
 30
0.0
 11
-8.3836833367
 21
-8.0163166633
 31
0.0
 12
-8.75
 22
-8.9
 32
1.6
 13
-8.75
 23
-8.9
 33
0.0
  0
3DFACE
  5
31C
100
AcDbEntity
  8
17
100
AcDbFace
  6
CONTINUOUS
 10
-8.3836833367
 20
-8.0163166633
 30
0.0
 11
-7.5
 21
-7.65
 31
0.0
 12
-8.3836833367
 22
-8.0163166633
 32
1.6
 13
-8.3836833367
 23
-8.0163166633
 33
0.0
  0
3DFACE
  5
31D
100
AcDbEntity
  8
17
100
AcDbFace
  6
CONTINUOUS
 10
-8.3836833367
 20
-8.0163166633
 30
0.0
 11
-8.3836833367
 21
-8.0163166633
 31
1.6
 12
-8.75
 22
-8.9
 32
1.6
 13
-8.3836833367
 23
-8.0163166633
 33
0.0
  0
3DFACE
  5
31E
100
AcDbEntity
  8
17
100
AcDbFace
  6
CONTINUOUS
 10
-7.5
 20
-7.65
 30
0.0
 11
-6.6163166633
 21
-8.0163166633
 31
0.0
 12
-7.5
 22
-7.65
 32
1.6
 13
-7.5
 23
-7.65
 33
0.0
  0
3DFACE
  5
31F
100
AcDbEntity
  8
17
100
AcDbFace
  6
CONTINUOUS
 10
-7.5
 20
-7.65
 30
0.0
 11
-7.5
 21
-7.65
 31
1.6
 12
-8.3836833367
 22
-8.0163166633
 32
1.6
 13
-7.5
 23
-7.65
 33
0.0
  0
3DFACE
  5
320
100
AcDbEntity
  8
17
100
AcDbFace
  6
CONTINUOUS
 10
-6.6163166633
 20
-8.0163166633
 30
0.0
 11
-6.6163166633
 21
-8.0163166633
 31
1.6
 12
-7.5
 22
-7.65
 32
1.6
 13
-6.6163166633
 23
-8.0163166633
 33
0.0
  0
3DFACE
  5
321
100
AcDbEntity
  8
18
100
AcDbFace
  6
CONTINUOUS
 10
-6.25
 20
-8.9
 30
0.0
 11
-6.6163166633
 21
-9.7836833367
 31
0.0
 12
-6.25
 22
-8.9
 32
1.6
 13
-6.25
 23
-8.9
 33
0.0
  0
3DFACE
  5
322
100
AcDbEntity
  8
18
100
AcDbFace
  6
CONTINUOUS
 10
-6.6163166633
 20
-9.7836833367
 30
0.0
 11
-7.5
 21
-10.15
 31
0.0
 12
-6.6163166633
 22
-9.7836833367
 32
1.6
 13
-6.6163166633
 23
-9.7836833367
 33
0.0
  0
3DFACE
  5
323
100
AcDbEntity
  8
18
100
AcDbFace
  6
CONTINUOUS
 10
-6.25
 20
-8.9
 30
1.6
 11
-6.6163166633
 21
-9.7836833367
 31
0.0
 12
-6.6163166633
 22
-9.7836833367
 32
1.6
 13
-6.25
 23
-8.9
 33
1.6
  0
3DFACE
  5
324
100
AcDbEntity
  8
18
100
AcDbFace
  6
CONTINUOUS
 10
-7.5
 20
-10.15
 30
0.0
 11
-8.3836833367
 21
-9.7836833367
 31
0.0
 12
-7.5
 22
-10.15
 32
1.6
 13
-7.5
 23
-10.15
 33
0.0
  0
3DFACE
  5
325
100
AcDbEntity
  8
18
100
AcDbFace
  6
CONTINUOUS
 10
-7.5
 20
-10.15
 30
0.0
 11
-7.5
 21
-10.15
 31
1.6
 12
-6.6163166633
 22
-9.7836833367
 32
1.6
 13
-7.5
 23
-10.15
 33
0.0
  0
3DFACE
  5
326
100
AcDbEntity
  8
18
100
AcDbFace
  6
CONTINUOUS
 10
-8.3836833367
 20
-9.7836833367
 30
0.0
 11
-8.75
 21
-8.9
 31
0.0
 12
-8.3836833367
 22
-9.7836833367
 32
1.6
 13
-8.3836833367
 23
-9.7836833367
 33
0.0
  0
3DFACE
  5
327
100
AcDbEntity
  8
18
100
AcDbFace
  6
CONTINUOUS
 10
-8.3836833367
 20
-9.7836833367
 30
0.0
 11
-8.3836833367
 21
-9.7836833367
 31
1.6
 12
-7.5
 22
-10.15
 32
1.6
 13
-8.3836833367
 23
-9.7836833367
 33
0.0
  0
3DFACE
  5
328
100
AcDbEntity
  8
18
100
AcDbFace
  6
CONTINUOUS
 10
-8.75
 20
-8.9
 30
0.0
 11
-8.75
 21
-8.9
 31
1.6
 12
-8.3836833367
 22
-9.7836833367
 32
1.6
 13
-8.75
 23
-8.9
 33
0.0
  0
3DFACE
  5
329
100
AcDbEntity
  8
19
100
AcDbFace
  6
CONTINUOUS
 10
8.3836833367
 20
-8.0163166633
 30
0.0
 11
8.75
 21
-8.9
 31
0.0
 12
8.3836833367
 22
-8.0163166633
 32
1.6
 13
8.3836833367
 23
-8.0163166633
 33
0.0
  0
3DFACE
  5
32A
100
AcDbEntity
  8
19
100
AcDbFace
  6
CONTINUOUS
 10
8.75
 20
-8.9
 30
0.0
 11
8.75
 21
-8.9
 31
1.6
 12
8.3836833367
 22
-8.0163166633
 32
1.6
 13
8.75
 23
-8.9
 33
0.0
  0
3DFACE
  5
32B
100
AcDbEntity
  8
19
100
AcDbFace
  6
CONTINUOUS
 10
6.25
 20
-8.9
 30
0.0
 11
6.6163166633
 21
-8.0163166633
 31
0.0
 12
6.25
 22
-8.9
 32
1.6
 13
6.25
 23
-8.9
 33
0.0
  0
3DFACE
  5
32C
100
AcDbEntity
  8
19
100
AcDbFace
  6
CONTINUOUS
 10
6.6163166633
 20
-8.0163166633
 30
0.0
 11
7.5
 21
-7.65
 31
0.0
 12
6.6163166633
 22
-8.0163166633
 32
1.6
 13
6.6163166633
 23
-8.0163166633
 33
0.0
  0
3DFACE
  5
32D
100
AcDbEntity
  8
19
100
AcDbFace
  6
CONTINUOUS
 10
6.6163166633
 20
-8.0163166633
 30
0.0
 11
6.6163166633
 21
-8.0163166633
 31
1.6
 12
6.25
 22
-8.9
 32
1.6
 13
6.6163166633
 23
-8.0163166633
 33
0.0
  0
3DFACE
  5
32E
100
AcDbEntity
  8
19
100
AcDbFace
  6
CONTINUOUS
 10
7.5
 20
-7.65
 30
0.0
 11
8.3836833367
 21
-8.0163166633
 31
0.0
 12
7.5
 22
-7.65
 32
1.6
 13
7.5
 23
-7.65
 33
0.0
  0
3DFACE
  5
32F
100
AcDbEntity
  8
19
100
AcDbFace
  6
CONTINUOUS
 10
7.5
 20
-7.65
 30
0.0
 11
7.5
 21
-7.65
 31
1.6
 12
6.6163166633
 22
-8.0163166633
 32
1.6
 13
7.5
 23
-7.65
 33
0.0
  0
3DFACE
  5
330
100
AcDbEntity
  8
19
100
AcDbFace
  6
CONTINUOUS
 10
8.3836833367
 20
-8.0163166633
 30
0.0
 11
8.3836833367
 21
-8.0163166633
 31
1.6
 12
7.5
 22
-7.65
 32
1.6
 13
8.3836833367
 23
-8.0163166633
 33
0.0
  0
3DFACE
  5
331
100
AcDbEntity
  8
20
100
AcDbFace
  6
CONTINUOUS
 10
8.75
 20
-8.9
 30
0.0
 11
8.3836833367
 21
-9.7836833367
 31
0.0
 12
8.75
 22
-8.9
 32
1.6
 13
8.75
 23
-8.9
 33
0.0
  0
3DFACE
  5
332
100
AcDbEntity
  8
20
100
AcDbFace
  6
CONTINUOUS
 10
8.3836833367
 20
-9.7836833367
 30
0.0
 11
7.5
 21
-10.15
 31
0.0
 12
8.3836833367
 22
-9.7836833367
 32
1.6
 13
8.3836833367
 23
-9.7836833367
 33
0.0
  0
3DFACE
  5
333
100
AcDbEntity
  8
20
100
AcDbFace
  6
CONTINUOUS
 10
8.75
 20
-8.9
 30
1.6
 11
8.3836833367
 21
-9.7836833367
 31
0.0
 12
8.3836833367
 22
-9.7836833367
 32
1.6
 13
8.75
 23
-8.9
 33
1.6
  0
3DFACE
  5
334
100
AcDbEntity
  8
20
100
AcDbFace
  6
CONTINUOUS
 10
7.5
 20
-10.15
 30
0.0
 11
6.6163166633
 21
-9.7836833367
 31
0.0
 12
7.5
 22
-10.15
 32
1.6
 13
7.5
 23
-10.15
 33
0.0
  0
3DFACE
  5
335
100
AcDbEntity
  8
20
100
AcDbFace
  6
CONTINUOUS
 10
7.5
 20
-10.15
 30
0.0
 11
7.5
 21
-10.15
 31
1.6
 12
8.3836833367
 22
-9.7836833367
 32
1.6
 13
7.5
 23
-10.15
 33
0.0
  0
3DFACE
  5
336
100
AcDbEntity
  8
20
100
AcDbFace
  6
CONTINUOUS
 10
6.6163166633
 20
-9.7836833367
 30
0.0
 11
6.25
 21
-8.9
 31
0.0
 12
6.6163166633
 22
-9.7836833367
 32
1.6
 13
6.6163166633
 23
-9.7836833367
 33
0.0
  0
3DFACE
  5
337
100
AcDbEntity
  8
20
100
AcDbFace
  6
CONTINUOUS
 10
6.6163166633
 20
-9.7836833367
 30
0.0
 11
6.6163166633
 21
-9.7836833367
 31
1.6
 12
7.5
 22
-10.15
 32
1.6
 13
6.6163166633
 23
-9.7836833367
 33
0.0
  0
3DFACE
  5
338
100
AcDbEntity
  8
20
100
AcDbFace
  6
CONTINUOUS
 10
6.25
 20
-8.9
 30
0.0
 11
6.25
 21
-8.9
 31
1.6
 12
6.6163166633
 22
-9.7836833367
 32
1.6
 13
6.25
 23
-8.9
 33
0.0
  0
3DFACE
  5
339
100
AcDbEntity
  8
21
100
AcDbFace
  6
CONTINUOUS
 10
20.8836833367
 20
-8.0163166633
 30
0.0
 11
21.25
 21
-8.9
 31
0.0
 12
20.8836833367
 22
-8.0163166633
 32
1.6
 13
20.8836833367
 23
-8.0163166633
 33
0.0
  0
3DFACE
  5
33A
100
AcDbEntity
  8
21
100
AcDbFace
  6
CONTINUOUS
 10
21.25
 20
-8.9
 30
0.0
 11
21.25
 21
-8.9
 31
1.6
 12
20.8836833367
 22
-8.0163166633
 32
1.6
 13
21.25
 23
-8.9
 33
0.0
  0
3DFACE
  5
33B
100
AcDbEntity
  8
21
100
AcDbFace
  6
CONTINUOUS
 10
18.75
 20
-8.9
 30
0.0
 11
19.1163166633
 21
-8.0163166633
 31
0.0
 12
18.75
 22
-8.9
 32
1.6
 13
18.75
 23
-8.9
 33
0.0
  0
3DFACE
  5
33C
100
AcDbEntity
  8
21
100
AcDbFace
  6
CONTINUOUS
 10
19.1163166633
 20
-8.0163166633
 30
0.0
 11
20.0
 21
-7.65
 31
0.0
 12
19.1163166633
 22
-8.0163166633
 32
1.6
 13
19.1163166633
 23
-8.0163166633
 33
0.0
  0
3DFACE
  5
33D
100
AcDbEntity
  8
21
100
AcDbFace
  6
CONTINUOUS
 10
19.1163166633
 20
-8.0163166633
 30
0.0
 11
19.1163166633
 21
-8.0163166633
 31
1.6
 12
18.75
 22
-8.9
 32
1.6
 13
19.1163166633
 23
-8.0163166633
 33
0.0
  0
3DFACE
  5
33E
100
AcDbEntity
  8
21
100
AcDbFace
  6
CONTINUOUS
 10
20.0
 20
-7.65
 30
0.0
 11
20.8836833367
 21
-8.0163166633
 31
0.0
 12
20.0
 22
-7.65
 32
1.6
 13
20.0
 23
-7.65
 33
0.0
  0
3DFACE
  5
33F
100
AcDbEntity
  8
21
100
AcDbFace
  6
CONTINUOUS
 10
20.0
 20
-7.65
 30
0.0
 11
20.0
 21
-7.65
 31
1.6
 12
19.1163166633
 22
-8.0163166633
 32
1.6
 13
20.0
 23
-7.65
 33
0.0
  0
3DFACE
  5
340
100
AcDbEntity
  8
21
100
AcDbFace
  6
CONTINUOUS
 10
20.8836833367
 20
-8.0163166633
 30
0.0
 11
20.8836833367
 21
-8.0163166633
 31
1.6
 12
20.0
 22
-7.65
 32
1.6
 13
20.8836833367
 23
-8.0163166633
 33
0.0
  0
3DFACE
  5
341
100
AcDbEntity
  8
22
100
AcDbFace
  6
CONTINUOUS
 10
21.25
 20
-8.9
 30
0.0
 11
20.8836833367
 21
-9.7836833367
 31
0.0
 12
21.25
 22
-8.9
 32
1.6
 13
21.25
 23
-8.9
 33
0.0
  0
3DFACE
  5
342
100
AcDbEntity
  8
22
100
AcDbFace
  6
CONTINUOUS
 10
20.8836833367
 20
-9.7836833367
 30
0.0
 11
20.0
 21
-10.15
 31
0.0
 12
20.8836833367
 22
-9.7836833367
 32
1.6
 13
20.8836833367
 23
-9.7836833367
 33
0.0
  0
3DFACE
  5
343
100
AcDbEntity
  8
22
100
AcDbFace
  6
CONTINUOUS
 10
21.25
 20
-8.9
 30
1.6
 11
20.8836833367
 21
-9.7836833367
 31
0.0
 12
20.8836833367
 22
-9.7836833367
 32
1.6
 13
21.25
 23
-8.9
 33
1.6
  0
3DFACE
  5
344
100
AcDbEntity
  8
22
100
AcDbFace
  6
CONTINUOUS
 10
20.0
 20
-10.15
 30
0.0
 11
19.1163166633
 21
-9.7836833367
 31
0.0
 12
20.0
 22
-10.15
 32
1.6
 13
20.0
 23
-10.15
 33
0.0
  0
3DFACE
  5
345
100
AcDbEntity
  8
22
100
AcDbFace
  6
CONTINUOUS
 10
20.0
 20
-10.15
 30
0.0
 11
20.0
 21
-10.15
 31
1.6
 12
20.8836833367
 22
-9.7836833367
 32
1.6
 13
20.0
 23
-10.15
 33
0.0
  0
3DFACE
  5
346
100
AcDbEntity
  8
22
100
AcDbFace
  6
CONTINUOUS
 10
19.1163166633
 20
-9.7836833367
 30
0.0
 11
18.75
 21
-8.9
 31
0.0
 12
19.1163166633
 22
-9.7836833367
 32
1.6
 13
19.1163166633
 23
-9.7836833367
 33
0.0
  0
3DFACE
  5
347
100
AcDbEntity
  8
22
100
AcDbFace
  6
CONTINUOUS
 10
19.1163166633
 20
-9.7836833367
 30
0.0
 11
19.1163166633
 21
-9.7836833367
 31
1.6
 12
20.0
 22
-10.15
 32
1.6
 13
19.1163166633
 23
-9.7836833367
 33
0.0
  0
3DFACE
  5
348
100
AcDbEntity
  8
22
100
AcDbFace
  6
CONTINUOUS
 10
18.75
 20
-8.9
 30
0.0
 11
18.75
 21
-8.9
 31
1.6
 12
19.1163166633
 22
-9.7836833367
 32
1.6
 13
18.75
 23
-8.9
 33
0.0
  0
ENDSEC
  0
SECTION
  2
OBJECTS
  0
DICTIONARY
  5
C
100
AcDbDictionary
280
0
281
1
  3
ACAD_GROUP
350
D
  3
ACAD_MLINESTYLE
350
17
  3
ACAD_LAYOUT
350
1A
  3
ACAD_PLOTSETTINGS
350
19
  3
ACAD_PLOTSTYLENAME
350
E
  0
DICTIONARY
  5
D
102
{ACAD_REACTORS
330
C
102
}
100
AcDbDictionary
280
0
281
1
  0
ACDBDICTIONARYWDFLT
  5
E
102
{ACAD_REACTORS
330
C
102
}
100
AcDbDictionary
281
1
  3
Normal
350
F
100
AcDbDictionaryWithDefault
340
F
  0
DICTIONARY
  5
17
102
{ACAD_REACTORS
330
C
102
}
100
AcDbDictionary
280
0
281
1
  3
Standard
350
18
  0
DICTIONARY
  5
19
102
{ACAD_REACTORS
330
C
102
}
100
AcDbDictionary
281
1
  0
DICTIONARY
  5
1A
102
{ACAD_REACTORS
330
C
102
}
100
AcDbDictionary
281
1
  3
Model
350
349
  3
Layout1
350
34A
  0
ACDBPLACEHOLDER
  5
F
102
{ACAD_REACTORS
330
E
102
}
  0
MLINESTYLE
  5
18
102
{ACAD_REACTORS
330
17
102
}
100
AcDbMlineStyle
  2
STANDARD
 70
0
  3

 62
256
 51
90.0
 52
90.0
 71
2
 49
0.5
 62
256
  6
BYLAYER
 49
-0.5
 62
256
  6
BYLAYER
  0
LAYOUT
  5
349
102
{ACAD_REACTORS
330
1A
102
}
100
AcDbPlotSettings
  1

  2
none_device
  4
ANSI_A_(11.00_x_8.50_Inches)
  6

 40
0.0
 41
0.0
 42
0.0
 43
0.0
 44
1000.0
 45
843.75
 46
0.0
 47
0.0
 48
0.0
 49
0.0
140
0.0
141
0.0
142
1.0
143
1.0
 70
1024
 72
1
 73
0
 74
0
  7

 75
0
147
1.0
148
0.0
149
0.0
100
AcDbLayout
  1
Model
 70
0
 71
0
 10
0.0
 20
0.0
 11
1000.0
 21
843.75
 12
0.0
 22
0.0
 32
0.0
 14
0.0
 24
0.0
 34
0.0
 15
0.0
 25
0.0
 35
0.0
146
0.0
 13
0.0
 23
0.0
 33
0.0
 16
1.0
 26
0.0
 36
0.0
 17
0.0
 27
1.0
 37
0.0
 76
0
330
214
345
0
346
0
  0
LAYOUT
  5
34A
102
{ACAD_REACTORS
330
1A
102
}
100
AcDbPlotSettings
  1

  2
none_device
  4
ANSI_A_(11.00_x_8.50_Inches)
  6

 40
0.0
 41
0.0
 42
0.0
 43
0.0
 44
1000.0
 45
843.75
 46
0.0
 47
0.0
 48
0.0
 49
0.0
140
0.0
141
0.0
142
1.0
143
1.0
 70
0
 72
1
 73
0
 74
0
  7

 75
0
147
1.0
148
0.0
149
0.0
100
AcDbLayout
  1
Layout1
 70
0
 71
1
 10
0.0
 20
0.0
 11
1000.0
 21
843.75
 12
0.0
 22
0.0
 32
0.0
 14
0.0
 24
0.0
 34
0.0
 15
0.0
 25
0.0
 35
0.0
146
0.0
 13
0.0
 23
0.0
 33
0.0
 16
1.0
 26
0.0
 36
0.0
 17
0.0
 27
1.0
 37
0.0
 76
0
330
215
345
0
346
0
  0
ENDSEC
  0
EOF
